<svg width="255" height="95" viewBox="0 0 255 95" fill="none" xmlns="http://www.w3.org/2000/svg">
<g style="mix-blend-mode:hard-light" filter="url(#filter0_f_127_162)">
<ellipse cx="127.5" cy="47.5" rx="105.5" ry="25.5" fill="#8F00FF" fill-opacity="0.2"/>
</g>
<g style="mix-blend-mode:hard-light" filter="url(#filter1_f_127_162)">
<mask id="path-2-outside-1_127_162" maskUnits="userSpaceOnUse" x="37.5835" y="27.2495" width="183" height="35" fill="black">
<rect fill="white" x="37.5835" y="27.2495" width="183" height="35"/>
<path d="M56.5387 57.1895H50.9587V54.2495H42.8587V32.7095H64.6087V54.2495H56.5387V57.1895ZM59.0287 48.6695V38.3195H48.4687V48.6695H50.9587V46.6895H56.5387V48.6695H59.0287ZM89.4245 54.2495H73.4045L67.6145 48.6695V32.7095H73.2245V48.6695H83.8145V32.7095H89.4245V54.2495ZM113.549 54.2495H92.429V43.7495L103.469 32.7095H113.549V38.3195H105.779L103.259 40.8395H111.989V46.4495H98.039V48.6695H113.549V54.2495ZM138.35 54.2495H116.54V48.6695H132.74V46.3595H122.33L116.54 40.7795V32.7095H135.68V38.3195H122.15V40.7795H132.56L138.35 46.3595V54.2495ZM150.271 54.2495H144.661V38.3195H137.881V32.7095H157.021V38.3195H150.271V54.2495ZM165.627 54.2495H160.017V32.7095H165.627V54.2495ZM174.24 54.2495H168.63V32.7095H190.38V43.2095H184.8V38.3195H174.24V40.8395H182.25V46.4495H174.24V54.2495ZM215.136 54.2495H193.446V48.6695H203.946V46.0595L196.206 38.3195H193.386V32.7095H198.516L206.646 40.8395H209.556V32.7095H215.136V40.9595L209.556 46.2095V48.6695H215.136V54.2495Z"/>
</mask>
<path d="M56.5387 57.1895V61.9426H61.2918V57.1895H56.5387ZM50.9587 57.1895H46.2055V61.9426H50.9587V57.1895ZM50.9587 54.2495H55.7118V49.4964H50.9587V54.2495ZM42.8587 54.2495H38.1055V59.0026H42.8587V54.2495ZM42.8587 32.7095V27.9564H38.1055V32.7095H42.8587ZM64.6087 32.7095H69.3618V27.9564H64.6087V32.7095ZM64.6087 54.2495V59.0026H69.3618V54.2495H64.6087ZM56.5387 54.2495V49.4964H51.7855V54.2495H56.5387ZM59.0287 48.6695V53.4226H63.7818V48.6695H59.0287ZM59.0287 38.3195H63.7818V33.5664H59.0287V38.3195ZM48.4687 38.3195V33.5664H43.7155V38.3195H48.4687ZM48.4687 48.6695H43.7155V53.4226H48.4687V48.6695ZM50.9587 48.6695V53.4226H55.7118V48.6695H50.9587ZM50.9587 46.6895V41.9364H46.2055V46.6895H50.9587ZM56.5387 46.6895H61.2918V41.9364H56.5387V46.6895ZM56.5387 48.6695H51.7855V53.4226H56.5387V48.6695ZM56.5387 52.4364H50.9587V61.9426H56.5387V52.4364ZM55.7118 57.1895V54.2495H46.2055V57.1895H55.7118ZM50.9587 49.4964H42.8587V59.0026H50.9587V49.4964ZM47.6118 54.2495V32.7095H38.1055V54.2495H47.6118ZM42.8587 37.4626H64.6087V27.9564H42.8587V37.4626ZM59.8555 32.7095V54.2495H69.3618V32.7095H59.8555ZM64.6087 49.4964H56.5387V59.0026H64.6087V49.4964ZM51.7855 54.2495V57.1895H61.2918V54.2495H51.7855ZM63.7818 48.6695V38.3195H54.2755V48.6695H63.7818ZM59.0287 33.5664H48.4687V43.0726H59.0287V33.5664ZM43.7155 38.3195V48.6695H53.2218V38.3195H43.7155ZM48.4687 53.4226H50.9587V43.9164H48.4687V53.4226ZM55.7118 48.6695V46.6895H46.2055V48.6695H55.7118ZM50.9587 51.4426H56.5387V41.9364H50.9587V51.4426ZM51.7855 46.6895V48.6695H61.2918V46.6895H51.7855ZM56.5387 53.4226H59.0287V43.9164H56.5387V53.4226ZM89.4245 54.2495V59.0026H94.1777V54.2495H89.4245ZM73.4045 54.2495L70.1062 57.672L71.4869 59.0026H73.4045V54.2495ZM67.6145 48.6695H62.8614V50.6899L64.3162 52.092L67.6145 48.6695ZM67.6145 32.7095V27.9564H62.8614V32.7095H67.6145ZM73.2245 32.7095H77.9776V27.9564H73.2245V32.7095ZM73.2245 48.6695H68.4714V53.4226H73.2245V48.6695ZM83.8145 48.6695V53.4226H88.5676V48.6695H83.8145ZM83.8145 32.7095V27.9564H79.0614V32.7095H83.8145ZM89.4245 32.7095H94.1777V27.9564H89.4245V32.7095ZM89.4245 49.4964H73.4045V59.0026H89.4245V49.4964ZM76.7029 50.8271L70.9129 45.2471L64.3162 52.092L70.1062 57.672L76.7029 50.8271ZM72.3676 48.6695V32.7095H62.8614V48.6695H72.3676ZM67.6145 37.4626H73.2245V27.9564H67.6145V37.4626ZM68.4714 32.7095V48.6695H77.9776V32.7095H68.4714ZM73.2245 53.4226H83.8145V43.9164H73.2245V53.4226ZM88.5676 48.6695V32.7095H79.0614V48.6695H88.5676ZM83.8145 37.4626H89.4245V27.9564H83.8145V37.4626ZM84.6714 32.7095V54.2495H94.1777V32.7095H84.6714ZM113.549 54.2495V59.0026H118.302V54.2495H113.549ZM92.429 54.2495H87.6759V59.0026H92.429V54.2495ZM92.429 43.7495L89.068 40.3885L87.6759 41.7807V43.7495H92.429ZM103.469 32.7095V27.9564H101.5L100.108 29.3485L103.469 32.7095ZM113.549 32.7095H118.302V27.9564H113.549V32.7095ZM113.549 38.3195V43.0726H118.302V38.3195H113.549ZM105.779 38.3195V33.5664H103.81L102.418 34.9585L105.779 38.3195ZM103.259 40.8395L99.898 37.4785L91.7839 45.5926H103.259V40.8395ZM111.989 40.8395H116.742V36.0864H111.989V40.8395ZM111.989 46.4495V51.2026H116.742V46.4495H111.989ZM98.039 46.4495V41.6964H93.2859V46.4495H98.039ZM98.039 48.6695H93.2859V53.4226H98.039V48.6695ZM113.549 48.6695H118.302V43.9164H113.549V48.6695ZM113.549 49.4964H92.429V59.0026H113.549V49.4964ZM97.1821 54.2495V43.7495H87.6759V54.2495H97.1821ZM95.7899 47.1105L106.83 36.0705L100.108 29.3485L89.068 40.3885L95.7899 47.1105ZM103.469 37.4626H113.549V27.9564H103.469V37.4626ZM108.796 32.7095V38.3195H118.302V32.7095H108.796ZM113.549 33.5664H105.779V43.0726H113.549V33.5664ZM102.418 34.9585L99.898 37.4785L106.62 44.2005L109.14 41.6805L102.418 34.9585ZM103.259 45.5926H111.989V36.0864H103.259V45.5926ZM107.236 40.8395V46.4495H116.742V40.8395H107.236ZM111.989 41.6964H98.039V51.2026H111.989V41.6964ZM93.2859 46.4495V48.6695H102.792V46.4495H93.2859ZM98.039 53.4226H113.549V43.9164H98.039V53.4226ZM108.796 48.6695V54.2495H118.302V48.6695H108.796ZM138.35 54.2495V59.0026H143.103V54.2495H138.35ZM116.54 54.2495H111.787V59.0026H116.54V54.2495ZM116.54 48.6695V43.9164H111.787V48.6695H116.54ZM132.74 48.6695V53.4226H137.493V48.6695H132.74ZM132.74 46.3595H137.493V41.6064H132.74V46.3595ZM122.33 46.3595L119.032 49.782L120.413 51.1126H122.33V46.3595ZM116.54 40.7795H111.787V42.7999L113.242 44.202L116.54 40.7795ZM116.54 32.7095V27.9564H111.787V32.7095H116.54ZM135.68 32.7095H140.433V27.9564H135.68V32.7095ZM135.68 38.3195V43.0726H140.433V38.3195H135.68ZM122.15 38.3195V33.5664H117.397V38.3195H122.15ZM122.15 40.7795H117.397V45.5326H122.15V40.7795ZM132.56 40.7795L135.859 37.3571L134.478 36.0264H132.56V40.7795ZM138.35 46.3595H143.103V44.3391L141.649 42.9371L138.35 46.3595ZM138.35 49.4964H116.54V59.0026H138.35V49.4964ZM121.293 54.2495V48.6695H111.787V54.2495H121.293ZM116.54 53.4226H132.74V43.9164H116.54V53.4226ZM137.493 48.6695V46.3595H127.987V48.6695H137.493ZM132.74 41.6064H122.33V51.1126H132.74V41.6064ZM125.629 42.9371L119.839 37.3571L113.242 44.202L119.032 49.782L125.629 42.9371ZM121.293 40.7795V32.7095H111.787V40.7795H121.293ZM116.54 37.4626H135.68V27.9564H116.54V37.4626ZM130.927 32.7095V38.3195H140.433V32.7095H130.927ZM135.68 33.5664H122.15V43.0726H135.68V33.5664ZM117.397 38.3195V40.7795H126.903V38.3195H117.397ZM122.15 45.5326H132.56V36.0264H122.15V45.5326ZM129.262 44.202L135.052 49.782L141.649 42.9371L135.859 37.3571L129.262 44.202ZM133.597 46.3595V54.2495H143.103V46.3595H133.597ZM150.271 54.2495V59.0026H155.024V54.2495H150.271ZM144.661 54.2495H139.907V59.0026H144.661V54.2495ZM144.661 38.3195H149.414V33.5664H144.661V38.3195ZM137.881 38.3195H133.127V43.0726H137.881V38.3195ZM137.881 32.7095V27.9564H133.127V32.7095H137.881ZM157.021 32.7095H161.774V27.9564H157.021V32.7095ZM157.021 38.3195V43.0726H161.774V38.3195H157.021ZM150.271 38.3195V33.5664H145.517V38.3195H150.271ZM150.271 49.4964H144.661V59.0026H150.271V49.4964ZM149.414 54.2495V38.3195H139.907V54.2495H149.414ZM144.661 33.5664H137.881V43.0726H144.661V33.5664ZM142.634 38.3195V32.7095H133.127V38.3195H142.634ZM137.881 37.4626H157.021V27.9564H137.881V37.4626ZM152.267 32.7095V38.3195H161.774V32.7095H152.267ZM157.021 33.5664H150.271V43.0726H157.021V33.5664ZM145.517 38.3195V54.2495H155.024V38.3195H145.517ZM165.627 54.2495V59.0026H170.38V54.2495H165.627ZM160.017 54.2495H155.264V59.0026H160.017V54.2495ZM160.017 32.7095V27.9564H155.264V32.7095H160.017ZM165.627 32.7095H170.38V27.9564H165.627V32.7095ZM165.627 49.4964H160.017V59.0026H165.627V49.4964ZM164.77 54.2495V32.7095H155.264V54.2495H164.77ZM160.017 37.4626H165.627V27.9564H160.017V37.4626ZM160.874 32.7095V54.2495H170.38V32.7095H160.874ZM174.24 54.2495V59.0026H178.993V54.2495H174.24ZM168.63 54.2495H163.877V59.0026H168.63V54.2495ZM168.63 32.7095V27.9564H163.877V32.7095H168.63ZM190.38 32.7095H195.133V27.9564H190.38V32.7095ZM190.38 43.2095V47.9626H195.133V43.2095H190.38ZM184.8 43.2095H180.047V47.9626H184.8V43.2095ZM184.8 38.3195H189.553V33.5664H184.8V38.3195ZM174.24 38.3195V33.5664H169.487V38.3195H174.24ZM174.24 40.8395H169.487V45.5926H174.24V40.8395ZM182.25 40.8395H187.003V36.0864H182.25V40.8395ZM182.25 46.4495V51.2026H187.003V46.4495H182.25ZM174.24 46.4495V41.6964H169.487V46.4495H174.24ZM174.24 49.4964H168.63V59.0026H174.24V49.4964ZM173.383 54.2495V32.7095H163.877V54.2495H173.383ZM168.63 37.4626H190.38V27.9564H168.63V37.4626ZM185.627 32.7095V43.2095H195.133V32.7095H185.627ZM190.38 38.4564H184.8V47.9626H190.38V38.4564ZM189.553 43.2095V38.3195H180.047V43.2095H189.553ZM184.8 33.5664H174.24V43.0726H184.8V33.5664ZM169.487 38.3195V40.8395H178.993V38.3195H169.487ZM174.24 45.5926H182.25V36.0864H174.24V45.5926ZM177.497 40.8395V46.4495H187.003V40.8395H177.497ZM182.25 41.6964H174.24V51.2026H182.25V41.6964ZM169.487 46.4495V54.2495H178.993V46.4495H169.487ZM215.136 54.2495V59.0026H219.889V54.2495H215.136ZM193.446 54.2495H188.693V59.0026H193.446V54.2495ZM193.446 48.6695V43.9164H188.693V48.6695H193.446ZM203.946 48.6695V53.4226H208.699V48.6695H203.946ZM203.946 46.0595H208.699V44.0907L207.307 42.6985L203.946 46.0595ZM196.206 38.3195L199.567 34.9585L198.175 33.5664H196.206V38.3195ZM193.386 38.3195H188.633V43.0726H193.386V38.3195ZM193.386 32.7095V27.9564H188.633V32.7095H193.386ZM198.516 32.7095L201.877 29.3485L200.485 27.9564H198.516V32.7095ZM206.646 40.8395L203.285 44.2005L204.677 45.5926H206.646V40.8395ZM209.556 40.8395V45.5926H214.309V40.8395H209.556ZM209.556 32.7095V27.9564H204.803V32.7095H209.556ZM215.136 32.7095H219.889V27.9564H215.136V32.7095ZM215.136 40.9595L218.393 44.4213L219.889 43.0137V40.9595H215.136ZM209.556 46.2095L206.299 42.7477L204.803 44.1553V46.2095H209.556ZM209.556 48.6695H204.803V53.4226H209.556V48.6695ZM215.136 48.6695H219.889V43.9164H215.136V48.6695ZM215.136 49.4964H193.446V59.0026H215.136V49.4964ZM198.199 54.2495V48.6695H188.693V54.2495H198.199ZM193.446 53.4226H203.946V43.9164H193.446V53.4226ZM208.699 48.6695V46.0595H199.193V48.6695H208.699ZM207.307 42.6985L199.567 34.9585L192.845 41.6805L200.585 49.4205L207.307 42.6985ZM196.206 33.5664H193.386V43.0726H196.206V33.5664ZM198.139 38.3195V32.7095H188.633V38.3195H198.139ZM193.386 37.4626H198.516V27.9564H193.386V37.4626ZM195.155 36.0705L203.285 44.2005L210.007 37.4785L201.877 29.3485L195.155 36.0705ZM206.646 45.5926H209.556V36.0864H206.646V45.5926ZM214.309 40.8395V32.7095H204.803V40.8395H214.309ZM209.556 37.4626H215.136V27.9564H209.556V37.4626ZM210.383 32.7095V40.9595H219.889V32.7095H210.383ZM211.879 37.4977L206.299 42.7477L212.813 49.6713L218.393 44.4213L211.879 37.4977ZM204.803 46.2095V48.6695H214.309V46.2095H204.803ZM209.556 53.4226H215.136V43.9164H209.556V53.4226ZM210.383 48.6695V54.2495H219.889V48.6695H210.383Z" fill="#CC00FF" mask="url(#path-2-outside-1_127_162)"/>
</g>
<g style="mix-blend-mode:hard-light" filter="url(#filter2_f_127_162)">
<mask id="path-4-outside-2_127_162" maskUnits="userSpaceOnUse" x="36.5835" y="26.2495" width="185" height="38" fill="black">
<rect fill="white" x="36.5835" y="26.2495" width="185" height="38"/>
<path d="M56.5387 57.1895H50.9587V54.2495H42.8587V32.7095H64.6087V54.2495H56.5387V57.1895ZM59.0287 48.6695V38.3195H48.4687V48.6695H50.9587V46.6895H56.5387V48.6695H59.0287ZM89.4245 54.2495H73.4045L67.6145 48.6695V32.7095H73.2245V48.6695H83.8145V32.7095H89.4245V54.2495ZM113.549 54.2495H92.429V43.7495L103.469 32.7095H113.549V38.3195H105.779L103.259 40.8395H111.989V46.4495H98.039V48.6695H113.549V54.2495ZM138.35 54.2495H116.54V48.6695H132.74V46.3595H122.33L116.54 40.7795V32.7095H135.68V38.3195H122.15V40.7795H132.56L138.35 46.3595V54.2495ZM150.271 54.2495H144.661V38.3195H137.881V32.7095H157.021V38.3195H150.271V54.2495ZM165.627 54.2495H160.017V32.7095H165.627V54.2495ZM174.24 54.2495H168.63V32.7095H190.38V43.2095H184.8V38.3195H174.24V40.8395H182.25V46.4495H174.24V54.2495ZM215.136 54.2495H193.446V48.6695H203.946V46.0595L196.206 38.3195H193.386V32.7095H198.516L206.646 40.8395H209.556V32.7095H215.136V40.9595L209.556 46.2095V48.6695H215.136V54.2495Z"/>
</mask>
<path d="M56.5387 57.1895V63.4051H62.7543V57.1895H56.5387ZM50.9587 57.1895H44.743V63.4051H50.9587V57.1895ZM50.9587 54.2495H57.1743V48.0339H50.9587V54.2495ZM42.8587 54.2495H36.643V60.4651H42.8587V54.2495ZM42.8587 32.7095V26.4939H36.643V32.7095H42.8587ZM64.6087 32.7095H70.8243V26.4939H64.6087V32.7095ZM64.6087 54.2495V60.4651H70.8243V54.2495H64.6087ZM56.5387 54.2495V48.0339H50.323V54.2495H56.5387ZM59.0287 48.6695V54.8851H65.2443V48.6695H59.0287ZM59.0287 38.3195H65.2443V32.1039H59.0287V38.3195ZM48.4687 38.3195V32.1039H42.253V38.3195H48.4687ZM48.4687 48.6695H42.253V54.8851H48.4687V48.6695ZM50.9587 48.6695V54.8851H57.1743V48.6695H50.9587ZM50.9587 46.6895V40.4739H44.743V46.6895H50.9587ZM56.5387 46.6895H62.7543V40.4739H56.5387V46.6895ZM56.5387 48.6695H50.323V54.8851H56.5387V48.6695ZM56.5387 50.9739H50.9587V63.4051H56.5387V50.9739ZM57.1743 57.1895V54.2495H44.743V57.1895H57.1743ZM50.9587 48.0339H42.8587V60.4651H50.9587V48.0339ZM49.0743 54.2495V32.7095H36.643V54.2495H49.0743ZM42.8587 38.9251H64.6087V26.4939H42.8587V38.9251ZM58.393 32.7095V54.2495H70.8243V32.7095H58.393ZM64.6087 48.0339H56.5387V60.4651H64.6087V48.0339ZM50.323 54.2495V57.1895H62.7543V54.2495H50.323ZM65.2443 48.6695V38.3195H52.813V48.6695H65.2443ZM59.0287 32.1039H48.4687V44.5351H59.0287V32.1039ZM42.253 38.3195V48.6695H54.6843V38.3195H42.253ZM48.4687 54.8851H50.9587V42.4539H48.4687V54.8851ZM57.1743 48.6695V46.6895H44.743V48.6695H57.1743ZM50.9587 52.9051H56.5387V40.4739H50.9587V52.9051ZM50.323 46.6895V48.6695H62.7543V46.6895H50.323ZM56.5387 54.8851H59.0287V42.4539H56.5387V54.8851ZM89.4245 54.2495V60.4651H95.6402V54.2495H89.4245ZM73.4045 54.2495L69.0913 58.725L70.8969 60.4651H73.4045V54.2495ZM67.6145 48.6695H61.3989V51.3116L63.3013 53.145L67.6145 48.6695ZM67.6145 32.7095V26.4939H61.3989V32.7095H67.6145ZM73.2245 32.7095H79.4402V26.4939H73.2245V32.7095ZM73.2245 48.6695H67.0089V54.8851H73.2245V48.6695ZM83.8145 48.6695V54.8851H90.0302V48.6695H83.8145ZM83.8145 32.7095V26.4939H77.5989V32.7095H83.8145ZM89.4245 32.7095H95.6402V26.4939H89.4245V32.7095ZM89.4245 48.0339H73.4045V60.4651H89.4245V48.0339ZM77.7177 49.774L71.9277 44.194L63.3013 53.145L69.0913 58.725L77.7177 49.774ZM73.8302 48.6695V32.7095H61.3989V48.6695H73.8302ZM67.6145 38.9251H73.2245V26.4939H67.6145V38.9251ZM67.0089 32.7095V48.6695H79.4402V32.7095H67.0089ZM73.2245 54.8851H83.8145V42.4539H73.2245V54.8851ZM90.0302 48.6695V32.7095H77.5989V48.6695H90.0302ZM83.8145 38.9251H89.4245V26.4939H83.8145V38.9251ZM83.2089 32.7095V54.2495H95.6402V32.7095H83.2089ZM113.549 54.2495V60.4651H119.765V54.2495H113.549ZM92.429 54.2495H86.2134V60.4651H92.429V54.2495ZM92.429 43.7495L88.0339 39.3544L86.2134 41.1749V43.7495H92.429ZM103.469 32.7095V26.4939H100.894L99.0739 28.3144L103.469 32.7095ZM113.549 32.7095H119.765V26.4939H113.549V32.7095ZM113.549 38.3195V44.5351H119.765V38.3195H113.549ZM105.779 38.3195V32.1039H103.204L101.384 33.9244L105.779 38.3195ZM103.259 40.8395L98.8639 36.4444L88.2531 47.0551H103.259V40.8395ZM111.989 40.8395H118.205V34.6239H111.989V40.8395ZM111.989 46.4495V52.6651H118.205V46.4495H111.989ZM98.039 46.4495V40.2339H91.8234V46.4495H98.039ZM98.039 48.6695H91.8234V54.8851H98.039V48.6695ZM113.549 48.6695H119.765V42.4539H113.549V48.6695ZM113.549 48.0339H92.429V60.4651H113.549V48.0339ZM98.6446 54.2495V43.7495H86.2134V54.2495H98.6446ZM96.8241 48.1446L107.864 37.1046L99.0739 28.3144L88.0339 39.3544L96.8241 48.1446ZM103.469 38.9251H113.549V26.4939H103.469V38.9251ZM107.333 32.7095V38.3195H119.765V32.7095H107.333ZM113.549 32.1039H105.779V44.5351H113.549V32.1039ZM101.384 33.9244L98.8639 36.4444L107.654 45.2346L110.174 42.7146L101.384 33.9244ZM103.259 47.0551H111.989V34.6239H103.259V47.0551ZM105.773 40.8395V46.4495H118.205V40.8395H105.773ZM111.989 40.2339H98.039V52.6651H111.989V40.2339ZM91.8234 46.4495V48.6695H104.255V46.4495H91.8234ZM98.039 54.8851H113.549V42.4539H98.039V54.8851ZM107.333 48.6695V54.2495H119.765V48.6695H107.333ZM138.35 54.2495V60.4651H144.566V54.2495H138.35ZM116.54 54.2495H110.325V60.4651H116.54V54.2495ZM116.54 48.6695V42.4539H110.325V48.6695H116.54ZM132.74 48.6695V54.8851H138.956V48.6695H132.74ZM132.74 46.3595H138.956V40.1439H132.74V46.3595ZM122.33 46.3595L118.017 50.835L119.823 52.5751H122.33V46.3595ZM116.54 40.7795H110.325V43.4216L112.227 45.255L116.54 40.7795ZM116.54 32.7095V26.4939H110.325V32.7095H116.54ZM135.68 32.7095H141.896V26.4939H135.68V32.7095ZM135.68 38.3195V44.5351H141.896V38.3195H135.68ZM122.15 38.3195V32.1039H115.935V38.3195H122.15ZM122.15 40.7795H115.935V46.9951H122.15V40.7795ZM132.56 40.7795L136.874 36.304L135.068 34.5639H132.56V40.7795ZM138.35 46.3595H144.566V43.7174L142.664 41.884L138.35 46.3595ZM138.35 48.0339H116.54V60.4651H138.35V48.0339ZM122.756 54.2495V48.6695H110.325V54.2495H122.756ZM116.54 54.8851H132.74V42.4539H116.54V54.8851ZM138.956 48.6695V46.3595H126.525V48.6695H138.956ZM132.74 40.1439H122.33V52.5751H132.74V40.1439ZM126.644 41.884L120.854 36.304L112.227 45.255L118.017 50.835L126.644 41.884ZM122.756 40.7795V32.7095H110.325V40.7795H122.756ZM116.54 38.9251H135.68V26.4939H116.54V38.9251ZM129.465 32.7095V38.3195H141.896V32.7095H129.465ZM135.68 32.1039H122.15V44.5351H135.68V32.1039ZM115.935 38.3195V40.7795H128.366V38.3195H115.935ZM122.15 46.9951H132.56V34.5639H122.15V46.9951ZM128.247 45.255L134.037 50.835L142.664 41.884L136.874 36.304L128.247 45.255ZM132.135 46.3595V54.2495H144.566V46.3595H132.135ZM150.271 54.2495V60.4651H156.486V54.2495H150.271ZM144.661 54.2495H138.445V60.4651H144.661V54.2495ZM144.661 38.3195H150.876V32.1039H144.661V38.3195ZM137.881 38.3195H131.665V44.5351H137.881V38.3195ZM137.881 32.7095V26.4939H131.665V32.7095H137.881ZM157.021 32.7095H163.236V26.4939H157.021V32.7095ZM157.021 38.3195V44.5351H163.236V38.3195H157.021ZM150.271 38.3195V32.1039H144.055V38.3195H150.271ZM150.271 48.0339H144.661V60.4651H150.271V48.0339ZM150.876 54.2495V38.3195H138.445V54.2495H150.876ZM144.661 32.1039H137.881V44.5351H144.661V32.1039ZM144.096 38.3195V32.7095H131.665V38.3195H144.096ZM137.881 38.9251H157.021V26.4939H137.881V38.9251ZM150.805 32.7095V38.3195H163.236V32.7095H150.805ZM157.021 32.1039H150.271V44.5351H157.021V32.1039ZM144.055 38.3195V54.2495H156.486V38.3195H144.055ZM165.627 54.2495V60.4651H171.842V54.2495H165.627ZM160.017 54.2495H153.801V60.4651H160.017V54.2495ZM160.017 32.7095V26.4939H153.801V32.7095H160.017ZM165.627 32.7095H171.842V26.4939H165.627V32.7095ZM165.627 48.0339H160.017V60.4651H165.627V48.0339ZM166.232 54.2495V32.7095H153.801V54.2495H166.232ZM160.017 38.9251H165.627V26.4939H160.017V38.9251ZM159.411 32.7095V54.2495H171.842V32.7095H159.411ZM174.24 54.2495V60.4651H180.456V54.2495H174.24ZM168.63 54.2495H162.415V60.4651H168.63V54.2495ZM168.63 32.7095V26.4939H162.415V32.7095H168.63ZM190.38 32.7095H196.596V26.4939H190.38V32.7095ZM190.38 43.2095V49.4251H196.596V43.2095H190.38ZM184.8 43.2095H178.585V49.4251H184.8V43.2095ZM184.8 38.3195H191.016V32.1039H184.8V38.3195ZM174.24 38.3195V32.1039H168.025V38.3195H174.24ZM174.24 40.8395H168.025V47.0551H174.24V40.8395ZM182.25 40.8395H188.466V34.6239H182.25V40.8395ZM182.25 46.4495V52.6651H188.466V46.4495H182.25ZM174.24 46.4495V40.2339H168.025V46.4495H174.24ZM174.24 48.0339H168.63V60.4651H174.24V48.0339ZM174.846 54.2495V32.7095H162.415V54.2495H174.846ZM168.63 38.9251H190.38V26.4939H168.63V38.9251ZM184.165 32.7095V43.2095H196.596V32.7095H184.165ZM190.38 36.9939H184.8V49.4251H190.38V36.9939ZM191.016 43.2095V38.3195H178.585V43.2095H191.016ZM184.8 32.1039H174.24V44.5351H184.8V32.1039ZM168.025 38.3195V40.8395H180.456V38.3195H168.025ZM174.24 47.0551H182.25V34.6239H174.24V47.0551ZM176.035 40.8395V46.4495H188.466V40.8395H176.035ZM182.25 40.2339H174.24V52.6651H182.25V40.2339ZM168.025 46.4495V54.2495H180.456V46.4495H168.025ZM215.136 54.2495V60.4651H221.352V54.2495H215.136ZM193.446 54.2495H187.23V60.4651H193.446V54.2495ZM193.446 48.6695V42.4539H187.23V48.6695H193.446ZM203.946 48.6695V54.8851H210.162V48.6695H203.946ZM203.946 46.0595H210.162V43.4849L208.341 41.6644L203.946 46.0595ZM196.206 38.3195L200.601 33.9244L198.781 32.1039H196.206V38.3195ZM193.386 38.3195H187.17V44.5351H193.386V38.3195ZM193.386 32.7095V26.4939H187.17V32.7095H193.386ZM198.516 32.7095L202.911 28.3144L201.091 26.4939H198.516V32.7095ZM206.646 40.8395L202.251 45.2346L204.071 47.0551H206.646V40.8395ZM209.556 40.8395V47.0551H215.772V40.8395H209.556ZM209.556 32.7095V26.4939H203.34V32.7095H209.556ZM215.136 32.7095H221.352V26.4939H215.136V32.7095ZM215.136 40.9595L219.395 45.4864L221.352 43.6457V40.9595H215.136ZM209.556 46.2095L205.297 41.6826L203.34 43.5233V46.2095H209.556ZM209.556 48.6695H203.34V54.8851H209.556V48.6695ZM215.136 48.6695H221.352V42.4539H215.136V48.6695ZM215.136 48.0339H193.446V60.4651H215.136V48.0339ZM199.662 54.2495V48.6695H187.23V54.2495H199.662ZM193.446 54.8851H203.946V42.4539H193.446V54.8851ZM210.162 48.6695V46.0595H197.73V48.6695H210.162ZM208.341 41.6644L200.601 33.9244L191.811 42.7146L199.551 50.4546L208.341 41.6644ZM196.206 32.1039H193.386V44.5351H196.206V32.1039ZM199.602 38.3195V32.7095H187.17V38.3195H199.602ZM193.386 38.9251H198.516V26.4939H193.386V38.9251ZM194.121 37.1046L202.251 45.2346L211.041 36.4444L202.911 28.3144L194.121 37.1046ZM206.646 47.0551H209.556V34.6239H206.646V47.0551ZM215.772 40.8395V32.7095H203.34V40.8395H215.772ZM209.556 38.9251H215.136V26.4939H209.556V38.9251ZM208.92 32.7095V40.9595H221.352V32.7095H208.92ZM210.877 36.4326L205.297 41.6826L213.815 50.7364L219.395 45.4864L210.877 36.4326ZM203.34 46.2095V48.6695H215.772V46.2095H203.34ZM209.556 54.8851H215.136V42.4539H209.556V54.8851ZM208.92 48.6695V54.2495H221.352V48.6695H208.92Z" fill="#CC00FF" mask="url(#path-4-outside-2_127_162)"/>
</g>
<g style="mix-blend-mode:hard-light" filter="url(#filter3_ddi_127_162)">
<mask id="path-6-outside-3_127_162" maskUnits="userSpaceOnUse" x="37.5835" y="27.2495" width="183" height="35" fill="black">
<rect fill="white" x="37.5835" y="27.2495" width="183" height="35"/>
<path d="M56.5387 57.1895H50.9587V54.2495H42.8587V32.7095H64.6087V54.2495H56.5387V57.1895ZM59.0287 48.6695V38.3195H48.4687V48.6695H50.9587V46.6895H56.5387V48.6695H59.0287ZM89.4245 54.2495H73.4045L67.6145 48.6695V32.7095H73.2245V48.6695H83.8145V32.7095H89.4245V54.2495ZM113.549 54.2495H92.429V43.7495L103.469 32.7095H113.549V38.3195H105.779L103.259 40.8395H111.989V46.4495H98.039V48.6695H113.549V54.2495ZM138.35 54.2495H116.54V48.6695H132.74V46.3595H122.33L116.54 40.7795V32.7095H135.68V38.3195H122.15V40.7795H132.56L138.35 46.3595V54.2495ZM150.271 54.2495H144.661V38.3195H137.881V32.7095H157.021V38.3195H150.271V54.2495ZM165.627 54.2495H160.017V32.7095H165.627V54.2495ZM174.24 54.2495H168.63V32.7095H190.38V43.2095H184.8V38.3195H174.24V40.8395H182.25V46.4495H174.24V54.2495ZM215.136 54.2495H193.446V48.6695H203.946V46.0595L196.206 38.3195H193.386V32.7095H198.516L206.646 40.8395H209.556V32.7095H215.136V40.9595L209.556 46.2095V48.6695H215.136V54.2495Z"/>
</mask>
<path d="M56.5387 57.1895V61.9426H61.2918V57.1895H56.5387ZM50.9587 57.1895H46.2055V61.9426H50.9587V57.1895ZM50.9587 54.2495H55.7118V49.4964H50.9587V54.2495ZM42.8587 54.2495H38.1055V59.0026H42.8587V54.2495ZM42.8587 32.7095V27.9564H38.1055V32.7095H42.8587ZM64.6087 32.7095H69.3618V27.9564H64.6087V32.7095ZM64.6087 54.2495V59.0026H69.3618V54.2495H64.6087ZM56.5387 54.2495V49.4964H51.7855V54.2495H56.5387ZM59.0287 48.6695V53.4226H63.7818V48.6695H59.0287ZM59.0287 38.3195H63.7818V33.5664H59.0287V38.3195ZM48.4687 38.3195V33.5664H43.7155V38.3195H48.4687ZM48.4687 48.6695H43.7155V53.4226H48.4687V48.6695ZM50.9587 48.6695V53.4226H55.7118V48.6695H50.9587ZM50.9587 46.6895V41.9364H46.2055V46.6895H50.9587ZM56.5387 46.6895H61.2918V41.9364H56.5387V46.6895ZM56.5387 48.6695H51.7855V53.4226H56.5387V48.6695ZM56.5387 52.4364H50.9587V61.9426H56.5387V52.4364ZM55.7118 57.1895V54.2495H46.2055V57.1895H55.7118ZM50.9587 49.4964H42.8587V59.0026H50.9587V49.4964ZM47.6118 54.2495V32.7095H38.1055V54.2495H47.6118ZM42.8587 37.4626H64.6087V27.9564H42.8587V37.4626ZM59.8555 32.7095V54.2495H69.3618V32.7095H59.8555ZM64.6087 49.4964H56.5387V59.0026H64.6087V49.4964ZM51.7855 54.2495V57.1895H61.2918V54.2495H51.7855ZM63.7818 48.6695V38.3195H54.2755V48.6695H63.7818ZM59.0287 33.5664H48.4687V43.0726H59.0287V33.5664ZM43.7155 38.3195V48.6695H53.2218V38.3195H43.7155ZM48.4687 53.4226H50.9587V43.9164H48.4687V53.4226ZM55.7118 48.6695V46.6895H46.2055V48.6695H55.7118ZM50.9587 51.4426H56.5387V41.9364H50.9587V51.4426ZM51.7855 46.6895V48.6695H61.2918V46.6895H51.7855ZM56.5387 53.4226H59.0287V43.9164H56.5387V53.4226ZM89.4245 54.2495V59.0026H94.1777V54.2495H89.4245ZM73.4045 54.2495L70.1062 57.672L71.4869 59.0026H73.4045V54.2495ZM67.6145 48.6695H62.8614V50.6899L64.3162 52.092L67.6145 48.6695ZM67.6145 32.7095V27.9564H62.8614V32.7095H67.6145ZM73.2245 32.7095H77.9776V27.9564H73.2245V32.7095ZM73.2245 48.6695H68.4714V53.4226H73.2245V48.6695ZM83.8145 48.6695V53.4226H88.5676V48.6695H83.8145ZM83.8145 32.7095V27.9564H79.0614V32.7095H83.8145ZM89.4245 32.7095H94.1777V27.9564H89.4245V32.7095ZM89.4245 49.4964H73.4045V59.0026H89.4245V49.4964ZM76.7029 50.8271L70.9129 45.2471L64.3162 52.092L70.1062 57.672L76.7029 50.8271ZM72.3676 48.6695V32.7095H62.8614V48.6695H72.3676ZM67.6145 37.4626H73.2245V27.9564H67.6145V37.4626ZM68.4714 32.7095V48.6695H77.9776V32.7095H68.4714ZM73.2245 53.4226H83.8145V43.9164H73.2245V53.4226ZM88.5676 48.6695V32.7095H79.0614V48.6695H88.5676ZM83.8145 37.4626H89.4245V27.9564H83.8145V37.4626ZM84.6714 32.7095V54.2495H94.1777V32.7095H84.6714ZM113.549 54.2495V59.0026H118.302V54.2495H113.549ZM92.429 54.2495H87.6759V59.0026H92.429V54.2495ZM92.429 43.7495L89.068 40.3885L87.6759 41.7807V43.7495H92.429ZM103.469 32.7095V27.9564H101.5L100.108 29.3485L103.469 32.7095ZM113.549 32.7095H118.302V27.9564H113.549V32.7095ZM113.549 38.3195V43.0726H118.302V38.3195H113.549ZM105.779 38.3195V33.5664H103.81L102.418 34.9585L105.779 38.3195ZM103.259 40.8395L99.898 37.4785L91.7839 45.5926H103.259V40.8395ZM111.989 40.8395H116.742V36.0864H111.989V40.8395ZM111.989 46.4495V51.2026H116.742V46.4495H111.989ZM98.039 46.4495V41.6964H93.2859V46.4495H98.039ZM98.039 48.6695H93.2859V53.4226H98.039V48.6695ZM113.549 48.6695H118.302V43.9164H113.549V48.6695ZM113.549 49.4964H92.429V59.0026H113.549V49.4964ZM97.1821 54.2495V43.7495H87.6759V54.2495H97.1821ZM95.7899 47.1105L106.83 36.0705L100.108 29.3485L89.068 40.3885L95.7899 47.1105ZM103.469 37.4626H113.549V27.9564H103.469V37.4626ZM108.796 32.7095V38.3195H118.302V32.7095H108.796ZM113.549 33.5664H105.779V43.0726H113.549V33.5664ZM102.418 34.9585L99.898 37.4785L106.62 44.2005L109.14 41.6805L102.418 34.9585ZM103.259 45.5926H111.989V36.0864H103.259V45.5926ZM107.236 40.8395V46.4495H116.742V40.8395H107.236ZM111.989 41.6964H98.039V51.2026H111.989V41.6964ZM93.2859 46.4495V48.6695H102.792V46.4495H93.2859ZM98.039 53.4226H113.549V43.9164H98.039V53.4226ZM108.796 48.6695V54.2495H118.302V48.6695H108.796ZM138.35 54.2495V59.0026H143.103V54.2495H138.35ZM116.54 54.2495H111.787V59.0026H116.54V54.2495ZM116.54 48.6695V43.9164H111.787V48.6695H116.54ZM132.74 48.6695V53.4226H137.493V48.6695H132.74ZM132.74 46.3595H137.493V41.6064H132.74V46.3595ZM122.33 46.3595L119.032 49.782L120.413 51.1126H122.33V46.3595ZM116.54 40.7795H111.787V42.7999L113.242 44.202L116.54 40.7795ZM116.54 32.7095V27.9564H111.787V32.7095H116.54ZM135.68 32.7095H140.433V27.9564H135.68V32.7095ZM135.68 38.3195V43.0726H140.433V38.3195H135.68ZM122.15 38.3195V33.5664H117.397V38.3195H122.15ZM122.15 40.7795H117.397V45.5326H122.15V40.7795ZM132.56 40.7795L135.859 37.3571L134.478 36.0264H132.56V40.7795ZM138.35 46.3595H143.103V44.3391L141.649 42.9371L138.35 46.3595ZM138.35 49.4964H116.54V59.0026H138.35V49.4964ZM121.293 54.2495V48.6695H111.787V54.2495H121.293ZM116.54 53.4226H132.74V43.9164H116.54V53.4226ZM137.493 48.6695V46.3595H127.987V48.6695H137.493ZM132.74 41.6064H122.33V51.1126H132.74V41.6064ZM125.629 42.9371L119.839 37.3571L113.242 44.202L119.032 49.782L125.629 42.9371ZM121.293 40.7795V32.7095H111.787V40.7795H121.293ZM116.54 37.4626H135.68V27.9564H116.54V37.4626ZM130.927 32.7095V38.3195H140.433V32.7095H130.927ZM135.68 33.5664H122.15V43.0726H135.68V33.5664ZM117.397 38.3195V40.7795H126.903V38.3195H117.397ZM122.15 45.5326H132.56V36.0264H122.15V45.5326ZM129.262 44.202L135.052 49.782L141.649 42.9371L135.859 37.3571L129.262 44.202ZM133.597 46.3595V54.2495H143.103V46.3595H133.597ZM150.271 54.2495V59.0026H155.024V54.2495H150.271ZM144.661 54.2495H139.907V59.0026H144.661V54.2495ZM144.661 38.3195H149.414V33.5664H144.661V38.3195ZM137.881 38.3195H133.127V43.0726H137.881V38.3195ZM137.881 32.7095V27.9564H133.127V32.7095H137.881ZM157.021 32.7095H161.774V27.9564H157.021V32.7095ZM157.021 38.3195V43.0726H161.774V38.3195H157.021ZM150.271 38.3195V33.5664H145.517V38.3195H150.271ZM150.271 49.4964H144.661V59.0026H150.271V49.4964ZM149.414 54.2495V38.3195H139.907V54.2495H149.414ZM144.661 33.5664H137.881V43.0726H144.661V33.5664ZM142.634 38.3195V32.7095H133.127V38.3195H142.634ZM137.881 37.4626H157.021V27.9564H137.881V37.4626ZM152.267 32.7095V38.3195H161.774V32.7095H152.267ZM157.021 33.5664H150.271V43.0726H157.021V33.5664ZM145.517 38.3195V54.2495H155.024V38.3195H145.517ZM165.627 54.2495V59.0026H170.38V54.2495H165.627ZM160.017 54.2495H155.264V59.0026H160.017V54.2495ZM160.017 32.7095V27.9564H155.264V32.7095H160.017ZM165.627 32.7095H170.38V27.9564H165.627V32.7095ZM165.627 49.4964H160.017V59.0026H165.627V49.4964ZM164.77 54.2495V32.7095H155.264V54.2495H164.77ZM160.017 37.4626H165.627V27.9564H160.017V37.4626ZM160.874 32.7095V54.2495H170.38V32.7095H160.874ZM174.24 54.2495V59.0026H178.993V54.2495H174.24ZM168.63 54.2495H163.877V59.0026H168.63V54.2495ZM168.63 32.7095V27.9564H163.877V32.7095H168.63ZM190.38 32.7095H195.133V27.9564H190.38V32.7095ZM190.38 43.2095V47.9626H195.133V43.2095H190.38ZM184.8 43.2095H180.047V47.9626H184.8V43.2095ZM184.8 38.3195H189.553V33.5664H184.8V38.3195ZM174.24 38.3195V33.5664H169.487V38.3195H174.24ZM174.24 40.8395H169.487V45.5926H174.24V40.8395ZM182.25 40.8395H187.003V36.0864H182.25V40.8395ZM182.25 46.4495V51.2026H187.003V46.4495H182.25ZM174.24 46.4495V41.6964H169.487V46.4495H174.24ZM174.24 49.4964H168.63V59.0026H174.24V49.4964ZM173.383 54.2495V32.7095H163.877V54.2495H173.383ZM168.63 37.4626H190.38V27.9564H168.63V37.4626ZM185.627 32.7095V43.2095H195.133V32.7095H185.627ZM190.38 38.4564H184.8V47.9626H190.38V38.4564ZM189.553 43.2095V38.3195H180.047V43.2095H189.553ZM184.8 33.5664H174.24V43.0726H184.8V33.5664ZM169.487 38.3195V40.8395H178.993V38.3195H169.487ZM174.24 45.5926H182.25V36.0864H174.24V45.5926ZM177.497 40.8395V46.4495H187.003V40.8395H177.497ZM182.25 41.6964H174.24V51.2026H182.25V41.6964ZM169.487 46.4495V54.2495H178.993V46.4495H169.487ZM215.136 54.2495V59.0026H219.889V54.2495H215.136ZM193.446 54.2495H188.693V59.0026H193.446V54.2495ZM193.446 48.6695V43.9164H188.693V48.6695H193.446ZM203.946 48.6695V53.4226H208.699V48.6695H203.946ZM203.946 46.0595H208.699V44.0907L207.307 42.6985L203.946 46.0595ZM196.206 38.3195L199.567 34.9585L198.175 33.5664H196.206V38.3195ZM193.386 38.3195H188.633V43.0726H193.386V38.3195ZM193.386 32.7095V27.9564H188.633V32.7095H193.386ZM198.516 32.7095L201.877 29.3485L200.485 27.9564H198.516V32.7095ZM206.646 40.8395L203.285 44.2005L204.677 45.5926H206.646V40.8395ZM209.556 40.8395V45.5926H214.309V40.8395H209.556ZM209.556 32.7095V27.9564H204.803V32.7095H209.556ZM215.136 32.7095H219.889V27.9564H215.136V32.7095ZM215.136 40.9595L218.393 44.4213L219.889 43.0137V40.9595H215.136ZM209.556 46.2095L206.299 42.7477L204.803 44.1553V46.2095H209.556ZM209.556 48.6695H204.803V53.4226H209.556V48.6695ZM215.136 48.6695H219.889V43.9164H215.136V48.6695ZM215.136 49.4964H193.446V59.0026H215.136V49.4964ZM198.199 54.2495V48.6695H188.693V54.2495H198.199ZM193.446 53.4226H203.946V43.9164H193.446V53.4226ZM208.699 48.6695V46.0595H199.193V48.6695H208.699ZM207.307 42.6985L199.567 34.9585L192.845 41.6805L200.585 49.4205L207.307 42.6985ZM196.206 33.5664H193.386V43.0726H196.206V33.5664ZM198.139 38.3195V32.7095H188.633V38.3195H198.139ZM193.386 37.4626H198.516V27.9564H193.386V37.4626ZM195.155 36.0705L203.285 44.2005L210.007 37.4785L201.877 29.3485L195.155 36.0705ZM206.646 45.5926H209.556V36.0864H206.646V45.5926ZM214.309 40.8395V32.7095H204.803V40.8395H214.309ZM209.556 37.4626H215.136V27.9564H209.556V37.4626ZM210.383 32.7095V40.9595H219.889V32.7095H210.383ZM211.879 37.4977L206.299 42.7477L212.813 49.6713L218.393 44.4213L211.879 37.4977ZM204.803 46.2095V48.6695H214.309V46.2095H204.803ZM209.556 53.4226H215.136V43.9164H209.556V53.4226ZM210.383 48.6695V54.2495H219.889V48.6695H210.383Z" fill="#6100FF" fill-opacity="0.2" mask="url(#path-6-outside-3_127_162)"/>
</g>
<g filter="url(#filter4_f_127_162)">
<mask id="path-8-outside-4_127_162" maskUnits="userSpaceOnUse" x="39.5835" y="29.2495" width="179" height="31" fill="black">
<rect fill="white" x="39.5835" y="29.2495" width="179" height="31"/>
<path d="M56.5387 57.1895H50.9587V54.2495H42.8587V32.7095H64.6087V54.2495H56.5387V57.1895ZM59.0287 48.6695V38.3195H48.4687V48.6695H50.9587V46.6895H56.5387V48.6695H59.0287ZM89.4245 54.2495H73.4045L67.6145 48.6695V32.7095H73.2245V48.6695H83.8145V32.7095H89.4245V54.2495ZM113.549 54.2495H92.429V43.7495L103.469 32.7095H113.549V38.3195H105.779L103.259 40.8395H111.989V46.4495H98.039V48.6695H113.549V54.2495ZM138.35 54.2495H116.54V48.6695H132.74V46.3595H122.33L116.54 40.7795V32.7095H135.68V38.3195H122.15V40.7795H132.56L138.35 46.3595V54.2495ZM150.271 54.2495H144.661V38.3195H137.881V32.7095H157.021V38.3195H150.271V54.2495ZM165.627 54.2495H160.017V32.7095H165.627V54.2495ZM174.24 54.2495H168.63V32.7095H190.38V43.2095H184.8V38.3195H174.24V40.8395H182.25V46.4495H174.24V54.2495ZM215.136 54.2495H193.446V48.6695H203.946V46.0595L196.206 38.3195H193.386V32.7095H198.516L206.646 40.8395H209.556V32.7095H215.136V40.9595L209.556 46.2095V48.6695H215.136V54.2495Z"/>
</mask>
<path d="M56.5387 57.1895V60.1145H59.4637V57.1895H56.5387ZM50.9587 57.1895H48.0337V60.1145H50.9587V57.1895ZM50.9587 54.2495H53.8837V51.3245H50.9587V54.2495ZM42.8587 54.2495H39.9337V57.1745H42.8587V54.2495ZM42.8587 32.7095V29.7845H39.9337V32.7095H42.8587ZM64.6087 32.7095H67.5337V29.7845H64.6087V32.7095ZM64.6087 54.2495V57.1745H67.5337V54.2495H64.6087ZM56.5387 54.2495V51.3245H53.6137V54.2495H56.5387ZM59.0287 48.6695V51.5945H61.9537V48.6695H59.0287ZM59.0287 38.3195H61.9537V35.3945H59.0287V38.3195ZM48.4687 38.3195V35.3945H45.5437V38.3195H48.4687ZM48.4687 48.6695H45.5437V51.5945H48.4687V48.6695ZM50.9587 48.6695V51.5945H53.8837V48.6695H50.9587ZM50.9587 46.6895V43.7645H48.0337V46.6895H50.9587ZM56.5387 46.6895H59.4637V43.7645H56.5387V46.6895ZM56.5387 48.6695H53.6137V51.5945H56.5387V48.6695ZM56.5387 54.2645H50.9587V60.1145H56.5387V54.2645ZM53.8837 57.1895V54.2495H48.0337V57.1895H53.8837ZM50.9587 51.3245H42.8587V57.1745H50.9587V51.3245ZM45.7837 54.2495V32.7095H39.9337V54.2495H45.7837ZM42.8587 35.6345H64.6087V29.7845H42.8587V35.6345ZM61.6837 32.7095V54.2495H67.5337V32.7095H61.6837ZM64.6087 51.3245H56.5387V57.1745H64.6087V51.3245ZM53.6137 54.2495V57.1895H59.4637V54.2495H53.6137ZM61.9537 48.6695V38.3195H56.1037V48.6695H61.9537ZM59.0287 35.3945H48.4687V41.2445H59.0287V35.3945ZM45.5437 38.3195V48.6695H51.3937V38.3195H45.5437ZM48.4687 51.5945H50.9587V45.7445H48.4687V51.5945ZM53.8837 48.6695V46.6895H48.0337V48.6695H53.8837ZM50.9587 49.6145H56.5387V43.7645H50.9587V49.6145ZM53.6137 46.6895V48.6695H59.4637V46.6895H53.6137ZM56.5387 51.5945H59.0287V45.7445H56.5387V51.5945ZM89.4245 54.2495V57.1745H92.3495V54.2495H89.4245ZM73.4045 54.2495L71.3748 56.3556L72.2245 57.1745H73.4045V54.2495ZM67.6145 48.6695H64.6895V49.9129L65.5848 50.7756L67.6145 48.6695ZM67.6145 32.7095V29.7845H64.6895V32.7095H67.6145ZM73.2245 32.7095H76.1495V29.7845H73.2245V32.7095ZM73.2245 48.6695H70.2995V51.5945H73.2245V48.6695ZM83.8145 48.6695V51.5945H86.7395V48.6695H83.8145ZM83.8145 32.7095V29.7845H80.8895V32.7095H83.8145ZM89.4245 32.7095H92.3495V29.7845H89.4245V32.7095ZM89.4245 51.3245H73.4045V57.1745H89.4245V51.3245ZM75.4343 52.1434L69.6443 46.5634L65.5848 50.7756L71.3748 56.3556L75.4343 52.1434ZM70.5395 48.6695V32.7095H64.6895V48.6695H70.5395ZM67.6145 35.6345H73.2245V29.7845H67.6145V35.6345ZM70.2995 32.7095V48.6695H76.1495V32.7095H70.2995ZM73.2245 51.5945H83.8145V45.7445H73.2245V51.5945ZM86.7395 48.6695V32.7095H80.8895V48.6695H86.7395ZM83.8145 35.6345H89.4245V29.7845H83.8145V35.6345ZM86.4995 32.7095V54.2495H92.3495V32.7095H86.4995ZM113.549 54.2495V57.1745H116.474V54.2495H113.549ZM92.429 54.2495H89.504V57.1745H92.429V54.2495ZM92.429 43.7495L90.3607 41.6812L89.504 42.5379V43.7495H92.429ZM103.469 32.7095V29.7845H102.257L101.401 30.6412L103.469 32.7095ZM113.549 32.7095H116.474V29.7845H113.549V32.7095ZM113.549 38.3195V41.2445H116.474V38.3195H113.549ZM105.779 38.3195V35.3945H104.567L103.711 36.2512L105.779 38.3195ZM103.259 40.8395L101.191 38.7712L96.1974 43.7645H103.259V40.8395ZM111.989 40.8395H114.914V37.9145H111.989V40.8395ZM111.989 46.4495V49.3745H114.914V46.4495H111.989ZM98.039 46.4495V43.5245H95.114V46.4495H98.039ZM98.039 48.6695H95.114V51.5945H98.039V48.6695ZM113.549 48.6695H116.474V45.7445H113.549V48.6695ZM113.549 51.3245H92.429V57.1745H113.549V51.3245ZM95.354 54.2495V43.7495H89.504V54.2495H95.354ZM94.4973 45.8178L105.537 34.7778L101.401 30.6412L90.3607 41.6812L94.4973 45.8178ZM103.469 35.6345H113.549V29.7845H103.469V35.6345ZM110.624 32.7095V38.3195H116.474V32.7095H110.624ZM113.549 35.3945H105.779V41.2445H113.549V35.3945ZM103.711 36.2512L101.191 38.7712L105.327 42.9078L107.847 40.3878L103.711 36.2512ZM103.259 43.7645H111.989V37.9145H103.259V43.7645ZM109.064 40.8395V46.4495H114.914V40.8395H109.064ZM111.989 43.5245H98.039V49.3745H111.989V43.5245ZM95.114 46.4495V48.6695H100.964V46.4495H95.114ZM98.039 51.5945H113.549V45.7445H98.039V51.5945ZM110.624 48.6695V54.2495H116.474V48.6695H110.624ZM138.35 54.2495V57.1745H141.275V54.2495H138.35ZM116.54 54.2495H113.615V57.1745H116.54V54.2495ZM116.54 48.6695V45.7445H113.615V48.6695H116.54ZM132.74 48.6695V51.5945H135.665V48.6695H132.74ZM132.74 46.3595H135.665V43.4345H132.74V46.3595ZM122.33 46.3595L120.301 48.4656L121.15 49.2845H122.33V46.3595ZM116.54 40.7795H113.615V42.0229L114.511 42.8856L116.54 40.7795ZM116.54 32.7095V29.7845H113.615V32.7095H116.54ZM135.68 32.7095H138.605V29.7845H135.68V32.7095ZM135.68 38.3195V41.2445H138.605V38.3195H135.68ZM122.15 38.3195V35.3945H119.225V38.3195H122.15ZM122.15 40.7795H119.225V43.7045H122.15V40.7795ZM132.56 40.7795L134.59 38.6734L133.74 37.8545H132.56V40.7795ZM138.35 46.3595H141.275V45.1162L140.38 44.2534L138.35 46.3595ZM138.35 51.3245H116.54V57.1745H138.35V51.3245ZM119.465 54.2495V48.6695H113.615V54.2495H119.465ZM116.54 51.5945H132.74V45.7445H116.54V51.5945ZM135.665 48.6695V46.3595H129.815V48.6695H135.665ZM132.74 43.4345H122.33V49.2845H132.74V43.4345ZM124.36 44.2534L118.57 38.6734L114.511 42.8856L120.301 48.4656L124.36 44.2534ZM119.465 40.7795V32.7095H113.615V40.7795H119.465ZM116.54 35.6345H135.68V29.7845H116.54V35.6345ZM132.755 32.7095V38.3195H138.605V32.7095H132.755ZM135.68 35.3945H122.15V41.2445H135.68V35.3945ZM119.225 38.3195V40.7795H125.075V38.3195H119.225ZM122.15 43.7045H132.56V37.8545H122.15V43.7045ZM130.531 42.8856L136.321 48.4656L140.38 44.2534L134.59 38.6734L130.531 42.8856ZM135.425 46.3595V54.2495H141.275V46.3595H135.425ZM150.271 54.2495V57.1745H153.196V54.2495H150.271ZM144.661 54.2495H141.736V57.1745H144.661V54.2495ZM144.661 38.3195H147.586V35.3945H144.661V38.3195ZM137.881 38.3195H134.956V41.2445H137.881V38.3195ZM137.881 32.7095V29.7845H134.956V32.7095H137.881ZM157.021 32.7095H159.946V29.7845H157.021V32.7095ZM157.021 38.3195V41.2445H159.946V38.3195H157.021ZM150.271 38.3195V35.3945H147.346V38.3195H150.271ZM150.271 51.3245H144.661V57.1745H150.271V51.3245ZM147.586 54.2495V38.3195H141.736V54.2495H147.586ZM144.661 35.3945H137.881V41.2445H144.661V35.3945ZM140.806 38.3195V32.7095H134.956V38.3195H140.806ZM137.881 35.6345H157.021V29.7845H137.881V35.6345ZM154.096 32.7095V38.3195H159.946V32.7095H154.096ZM157.021 35.3945H150.271V41.2445H157.021V35.3945ZM147.346 38.3195V54.2495H153.196V38.3195H147.346ZM165.627 54.2495V57.1745H168.552V54.2495H165.627ZM160.017 54.2495H157.092V57.1745H160.017V54.2495ZM160.017 32.7095V29.7845H157.092V32.7095H160.017ZM165.627 32.7095H168.552V29.7845H165.627V32.7095ZM165.627 51.3245H160.017V57.1745H165.627V51.3245ZM162.942 54.2495V32.7095H157.092V54.2495H162.942ZM160.017 35.6345H165.627V29.7845H160.017V35.6345ZM162.702 32.7095V54.2495H168.552V32.7095H162.702ZM174.24 54.2495V57.1745H177.165V54.2495H174.24ZM168.63 54.2495H165.705V57.1745H168.63V54.2495ZM168.63 32.7095V29.7845H165.705V32.7095H168.63ZM190.38 32.7095H193.305V29.7845H190.38V32.7095ZM190.38 43.2095V46.1345H193.305V43.2095H190.38ZM184.8 43.2095H181.875V46.1345H184.8V43.2095ZM184.8 38.3195H187.725V35.3945H184.8V38.3195ZM174.24 38.3195V35.3945H171.315V38.3195H174.24ZM174.24 40.8395H171.315V43.7645H174.24V40.8395ZM182.25 40.8395H185.175V37.9145H182.25V40.8395ZM182.25 46.4495V49.3745H185.175V46.4495H182.25ZM174.24 46.4495V43.5245H171.315V46.4495H174.24ZM174.24 51.3245H168.63V57.1745H174.24V51.3245ZM171.555 54.2495V32.7095H165.705V54.2495H171.555ZM168.63 35.6345H190.38V29.7845H168.63V35.6345ZM187.455 32.7095V43.2095H193.305V32.7095H187.455ZM190.38 40.2845H184.8V46.1345H190.38V40.2845ZM187.725 43.2095V38.3195H181.875V43.2095H187.725ZM184.8 35.3945H174.24V41.2445H184.8V35.3945ZM171.315 38.3195V40.8395H177.165V38.3195H171.315ZM174.24 43.7645H182.25V37.9145H174.24V43.7645ZM179.325 40.8395V46.4495H185.175V40.8395H179.325ZM182.25 43.5245H174.24V49.3745H182.25V43.5245ZM171.315 46.4495V54.2495H177.165V46.4495H171.315ZM215.136 54.2495V57.1745H218.061V54.2495H215.136ZM193.446 54.2495H190.521V57.1745H193.446V54.2495ZM193.446 48.6695V45.7445H190.521V48.6695H193.446ZM203.946 48.6695V51.5945H206.871V48.6695H203.946ZM203.946 46.0595H206.871V44.8479L206.014 43.9912L203.946 46.0595ZM196.206 38.3195L198.274 36.2512L197.418 35.3945H196.206V38.3195ZM193.386 38.3195H190.461V41.2445H193.386V38.3195ZM193.386 32.7095V29.7845H190.461V32.7095H193.386ZM198.516 32.7095L200.584 30.6412L199.728 29.7845H198.516V32.7095ZM206.646 40.8395L204.578 42.9078L205.434 43.7645H206.646V40.8395ZM209.556 40.8395V43.7645H212.481V40.8395H209.556ZM209.556 32.7095V29.7845H206.631V32.7095H209.556ZM215.136 32.7095H218.061V29.7845H215.136V32.7095ZM215.136 40.9595L217.14 43.0898L218.061 42.2236V40.9595H215.136ZM209.556 46.2095L207.552 44.0792L206.631 44.9454V46.2095H209.556ZM209.556 48.6695H206.631V51.5945H209.556V48.6695ZM215.136 48.6695H218.061V45.7445H215.136V48.6695ZM215.136 51.3245H193.446V57.1745H215.136V51.3245ZM196.371 54.2495V48.6695H190.521V54.2495H196.371ZM193.446 51.5945H203.946V45.7445H193.446V51.5945ZM206.871 48.6695V46.0595H201.021V48.6695H206.871ZM206.014 43.9912L198.274 36.2512L194.138 40.3878L201.878 48.1278L206.014 43.9912ZM196.206 35.3945H193.386V41.2445H196.206V35.3945ZM196.311 38.3195V32.7095H190.461V38.3195H196.311ZM193.386 35.6345H198.516V29.7845H193.386V35.6345ZM196.448 34.7778L204.578 42.9078L208.714 38.7712L200.584 30.6412L196.448 34.7778ZM206.646 43.7645H209.556V37.9145H206.646V43.7645ZM212.481 40.8395V32.7095H206.631V40.8395H212.481ZM209.556 35.6345H215.136V29.7845H209.556V35.6345ZM212.211 32.7095V40.9595H218.061V32.7095H212.211ZM213.132 38.8292L207.552 44.0792L211.56 48.3398L217.14 43.0898L213.132 38.8292ZM206.631 46.2095V48.6695H212.481V46.2095H206.631ZM209.556 51.5945H215.136V45.7445H209.556V51.5945ZM212.211 48.6695V54.2495H218.061V48.6695H212.211Z" fill="#C882FF" mask="url(#path-8-outside-4_127_162)"/>
</g>
<g filter="url(#filter5_f_127_162)">
<mask id="path-10-outside-5_127_162" maskUnits="userSpaceOnUse" x="40.5835" y="30.2495" width="177" height="29" fill="black">
<rect fill="white" x="40.5835" y="30.2495" width="177" height="29"/>
<path d="M56.5387 57.1895H50.9587V54.2495H42.8587V32.7095H64.6087V54.2495H56.5387V57.1895ZM59.0287 48.6695V38.3195H48.4687V48.6695H50.9587V46.6895H56.5387V48.6695H59.0287ZM89.4245 54.2495H73.4045L67.6145 48.6695V32.7095H73.2245V48.6695H83.8145V32.7095H89.4245V54.2495ZM113.549 54.2495H92.429V43.7495L103.469 32.7095H113.549V38.3195H105.779L103.259 40.8395H111.989V46.4495H98.039V48.6695H113.549V54.2495ZM138.35 54.2495H116.54V48.6695H132.74V46.3595H122.33L116.54 40.7795V32.7095H135.68V38.3195H122.15V40.7795H132.56L138.35 46.3595V54.2495ZM150.271 54.2495H144.661V38.3195H137.881V32.7095H157.021V38.3195H150.271V54.2495ZM165.627 54.2495H160.017V32.7095H165.627V54.2495ZM174.24 54.2495H168.63V32.7095H190.38V43.2095H184.8V38.3195H174.24V40.8395H182.25V46.4495H174.24V54.2495ZM215.136 54.2495H193.446V48.6695H203.946V46.0595L196.206 38.3195H193.386V32.7095H198.516L206.646 40.8395H209.556V32.7095H215.136V40.9595L209.556 46.2095V48.6695H215.136V54.2495Z"/>
</mask>
<path d="M56.5387 57.1895V58.652H58.0012V57.1895H56.5387ZM50.9587 57.1895H49.4962V58.652H50.9587V57.1895ZM50.9587 54.2495H52.4212V52.787H50.9587V54.2495ZM42.8587 54.2495H41.3962V55.712H42.8587V54.2495ZM42.8587 32.7095V31.247H41.3962V32.7095H42.8587ZM64.6087 32.7095H66.0712V31.247H64.6087V32.7095ZM64.6087 54.2495V55.712H66.0712V54.2495H64.6087ZM56.5387 54.2495V52.787H55.0762V54.2495H56.5387ZM59.0287 48.6695V50.132H60.4912V48.6695H59.0287ZM59.0287 38.3195H60.4912V36.857H59.0287V38.3195ZM48.4687 38.3195V36.857H47.0062V38.3195H48.4687ZM48.4687 48.6695H47.0062V50.132H48.4687V48.6695ZM50.9587 48.6695V50.132H52.4212V48.6695H50.9587ZM50.9587 46.6895V45.227H49.4962V46.6895H50.9587ZM56.5387 46.6895H58.0012V45.227H56.5387V46.6895ZM56.5387 48.6695H55.0762V50.132H56.5387V48.6695ZM56.5387 55.727H50.9587V58.652H56.5387V55.727ZM52.4212 57.1895V54.2495H49.4962V57.1895H52.4212ZM50.9587 52.787H42.8587V55.712H50.9587V52.787ZM44.3212 54.2495V32.7095H41.3962V54.2495H44.3212ZM42.8587 34.172H64.6087V31.247H42.8587V34.172ZM63.1462 32.7095V54.2495H66.0712V32.7095H63.1462ZM64.6087 52.787H56.5387V55.712H64.6087V52.787ZM55.0762 54.2495V57.1895H58.0012V54.2495H55.0762ZM60.4912 48.6695V38.3195H57.5662V48.6695H60.4912ZM59.0287 36.857H48.4687V39.782H59.0287V36.857ZM47.0062 38.3195V48.6695H49.9312V38.3195H47.0062ZM48.4687 50.132H50.9587V47.207H48.4687V50.132ZM52.4212 48.6695V46.6895H49.4962V48.6695H52.4212ZM50.9587 48.152H56.5387V45.227H50.9587V48.152ZM55.0762 46.6895V48.6695H58.0012V46.6895H55.0762ZM56.5387 50.132H59.0287V47.207H56.5387V50.132ZM89.4245 54.2495V55.712H90.887V54.2495H89.4245ZM73.4045 54.2495L72.3897 55.3026L72.8145 55.712H73.4045V54.2495ZM67.6145 48.6695H66.152V49.2912L66.5997 49.7226L67.6145 48.6695ZM67.6145 32.7095V31.247H66.152V32.7095H67.6145ZM73.2245 32.7095H74.687V31.247H73.2245V32.7095ZM73.2245 48.6695H71.762V50.132H73.2245V48.6695ZM83.8145 48.6695V50.132H85.277V48.6695H83.8145ZM83.8145 32.7095V31.247H82.352V32.7095H83.8145ZM89.4245 32.7095H90.887V31.247H89.4245V32.7095ZM89.4245 52.787H73.4045V55.712H89.4245V52.787ZM74.4194 53.1964L68.6294 47.6164L66.5997 49.7226L72.3897 55.3026L74.4194 53.1964ZM69.077 48.6695V32.7095H66.152V48.6695H69.077ZM67.6145 34.172H73.2245V31.247H67.6145V34.172ZM71.762 32.7095V48.6695H74.687V32.7095H71.762ZM73.2245 50.132H83.8145V47.207H73.2245V50.132ZM85.277 48.6695V32.7095H82.352V48.6695H85.277ZM83.8145 34.172H89.4245V31.247H83.8145V34.172ZM87.962 32.7095V54.2495H90.887V32.7095H87.962ZM113.549 54.2495V55.712H115.011V54.2495H113.549ZM92.429 54.2495H90.9665V55.712H92.429V54.2495ZM92.429 43.7495L91.3948 42.7154L90.9665 43.1437V43.7495H92.429ZM103.469 32.7095V31.247H102.863L102.435 31.6754L103.469 32.7095ZM113.549 32.7095H115.011V31.247H113.549V32.7095ZM113.549 38.3195V39.782H115.011V38.3195H113.549ZM105.779 38.3195V36.857H105.173L104.745 37.2854L105.779 38.3195ZM103.259 40.8395L102.225 39.8054L99.7282 42.302H103.259V40.8395ZM111.989 40.8395H113.451V39.377H111.989V40.8395ZM111.989 46.4495V47.912H113.451V46.4495H111.989ZM98.039 46.4495V44.987H96.5765V46.4495H98.039ZM98.039 48.6695H96.5765V50.132H98.039V48.6695ZM113.549 48.6695H115.011V47.207H113.549V48.6695ZM113.549 52.787H92.429V55.712H113.549V52.787ZM93.8915 54.2495V43.7495H90.9665V54.2495H93.8915ZM93.4631 44.7837L104.503 33.7437L102.435 31.6754L91.3948 42.7154L93.4631 44.7837ZM103.469 34.172H113.549V31.247H103.469V34.172ZM112.086 32.7095V38.3195H115.011V32.7095H112.086ZM113.549 36.857H105.779V39.782H113.549V36.857ZM104.745 37.2854L102.225 39.8054L104.293 41.8737L106.813 39.3537L104.745 37.2854ZM103.259 42.302H111.989V39.377H103.259V42.302ZM110.526 40.8395V46.4495H113.451V40.8395H110.526ZM111.989 44.987H98.039V47.912H111.989V44.987ZM96.5765 46.4495V48.6695H99.5015V46.4495H96.5765ZM98.039 50.132H113.549V47.207H98.039V50.132ZM112.086 48.6695V54.2495H115.011V48.6695H112.086ZM138.35 54.2495V55.712H139.813V54.2495H138.35ZM116.54 54.2495H115.078V55.712H116.54V54.2495ZM116.54 48.6695V47.207H115.078V48.6695H116.54ZM132.74 48.6695V50.132H134.203V48.6695H132.74ZM132.74 46.3595H134.203V44.897H132.74V46.3595ZM122.33 46.3595L121.315 47.4126L121.74 47.822H122.33V46.3595ZM116.54 40.7795H115.078V41.4012L115.525 41.8326L116.54 40.7795ZM116.54 32.7095V31.247H115.078V32.7095H116.54ZM135.68 32.7095H137.143V31.247H135.68V32.7095ZM135.68 38.3195V39.782H137.143V38.3195H135.68ZM122.15 38.3195V36.857H120.688V38.3195H122.15ZM122.15 40.7795H120.688V42.242H122.15V40.7795ZM132.56 40.7795L133.575 39.7264L133.15 39.317H132.56V40.7795ZM138.35 46.3595H139.813V45.7378L139.365 45.3064L138.35 46.3595ZM138.35 52.787H116.54V55.712H138.35V52.787ZM118.003 54.2495V48.6695H115.078V54.2495H118.003ZM116.54 50.132H132.74V47.207H116.54V50.132ZM134.203 48.6695V46.3595H131.278V48.6695H134.203ZM132.74 44.897H122.33V47.822H132.74V44.897ZM123.345 45.3064L117.555 39.7264L115.525 41.8326L121.315 47.4126L123.345 45.3064ZM118.003 40.7795V32.7095H115.078V40.7795H118.003ZM116.54 34.172H135.68V31.247H116.54V34.172ZM134.218 32.7095V38.3195H137.143V32.7095H134.218ZM135.68 36.857H122.15V39.782H135.68V36.857ZM120.688 38.3195V40.7795H123.613V38.3195H120.688ZM122.15 42.242H132.56V39.317H122.15V42.242ZM131.545 41.8326L137.335 47.4126L139.365 45.3064L133.575 39.7264L131.545 41.8326ZM136.888 46.3595V54.2495H139.813V46.3595H136.888ZM150.271 54.2495V55.712H151.733V54.2495H150.271ZM144.661 54.2495H143.198V55.712H144.661V54.2495ZM144.661 38.3195H146.123V36.857H144.661V38.3195ZM137.881 38.3195H136.418V39.782H137.881V38.3195ZM137.881 32.7095V31.247H136.418V32.7095H137.881ZM157.021 32.7095H158.483V31.247H157.021V32.7095ZM157.021 38.3195V39.782H158.483V38.3195H157.021ZM150.271 38.3195V36.857H148.808V38.3195H150.271ZM150.271 52.787H144.661V55.712H150.271V52.787ZM146.123 54.2495V38.3195H143.198V54.2495H146.123ZM144.661 36.857H137.881V39.782H144.661V36.857ZM139.343 38.3195V32.7095H136.418V38.3195H139.343ZM137.881 34.172H157.021V31.247H137.881V34.172ZM155.558 32.7095V38.3195H158.483V32.7095H155.558ZM157.021 36.857H150.271V39.782H157.021V36.857ZM148.808 38.3195V54.2495H151.733V38.3195H148.808ZM165.627 54.2495V55.712H167.089V54.2495H165.627ZM160.017 54.2495H158.554V55.712H160.017V54.2495ZM160.017 32.7095V31.247H158.554V32.7095H160.017ZM165.627 32.7095H167.089V31.247H165.627V32.7095ZM165.627 52.787H160.017V55.712H165.627V52.787ZM161.479 54.2495V32.7095H158.554V54.2495H161.479ZM160.017 34.172H165.627V31.247H160.017V34.172ZM164.164 32.7095V54.2495H167.089V32.7095H164.164ZM174.24 54.2495V55.712H175.703V54.2495H174.24ZM168.63 54.2495H167.168V55.712H168.63V54.2495ZM168.63 32.7095V31.247H167.168V32.7095H168.63ZM190.38 32.7095H191.843V31.247H190.38V32.7095ZM190.38 43.2095V44.672H191.843V43.2095H190.38ZM184.8 43.2095H183.338V44.672H184.8V43.2095ZM184.8 38.3195H186.263V36.857H184.8V38.3195ZM174.24 38.3195V36.857H172.778V38.3195H174.24ZM174.24 40.8395H172.778V42.302H174.24V40.8395ZM182.25 40.8395H183.713V39.377H182.25V40.8395ZM182.25 46.4495V47.912H183.713V46.4495H182.25ZM174.24 46.4495V44.987H172.778V46.4495H174.24ZM174.24 52.787H168.63V55.712H174.24V52.787ZM170.093 54.2495V32.7095H167.168V54.2495H170.093ZM168.63 34.172H190.38V31.247H168.63V34.172ZM188.918 32.7095V43.2095H191.843V32.7095H188.918ZM190.38 41.747H184.8V44.672H190.38V41.747ZM186.263 43.2095V38.3195H183.338V43.2095H186.263ZM184.8 36.857H174.24V39.782H184.8V36.857ZM172.778 38.3195V40.8395H175.703V38.3195H172.778ZM174.24 42.302H182.25V39.377H174.24V42.302ZM180.788 40.8395V46.4495H183.713V40.8395H180.788ZM182.25 44.987H174.24V47.912H182.25V44.987ZM172.778 46.4495V54.2495H175.703V46.4495H172.778ZM215.136 54.2495V55.712H216.599V54.2495H215.136ZM193.446 54.2495H191.984V55.712H193.446V54.2495ZM193.446 48.6695V47.207H191.984V48.6695H193.446ZM203.946 48.6695V50.132H205.409V48.6695H203.946ZM203.946 46.0595H205.409V45.4537L204.98 45.0254L203.946 46.0595ZM196.206 38.3195L197.24 37.2854L196.812 36.857H196.206V38.3195ZM193.386 38.3195H191.924V39.782H193.386V38.3195ZM193.386 32.7095V31.247H191.924V32.7095H193.386ZM198.516 32.7095L199.55 31.6754L199.122 31.247H198.516V32.7095ZM206.646 40.8395L205.612 41.8737L206.04 42.302H206.646V40.8395ZM209.556 40.8395V42.302H211.019V40.8395H209.556ZM209.556 32.7095V31.247H208.094V32.7095H209.556ZM215.136 32.7095H216.599V31.247H215.136V32.7095ZM215.136 40.9595L216.138 42.0247L216.599 41.5916V40.9595H215.136ZM209.556 46.2095L208.554 45.1444L208.094 45.5775V46.2095H209.556ZM209.556 48.6695H208.094V50.132H209.556V48.6695ZM215.136 48.6695H216.599V47.207H215.136V48.6695ZM215.136 52.787H193.446V55.712H215.136V52.787ZM194.909 54.2495V48.6695H191.984V54.2495H194.909ZM193.446 50.132H203.946V47.207H193.446V50.132ZM205.409 48.6695V46.0595H202.484V48.6695H205.409ZM204.98 45.0254L197.24 37.2854L195.172 39.3537L202.912 47.0937L204.98 45.0254ZM196.206 36.857H193.386V39.782H196.206V36.857ZM194.849 38.3195V32.7095H191.924V38.3195H194.849ZM193.386 34.172H198.516V31.247H193.386V34.172ZM197.482 33.7437L205.612 41.8737L207.68 39.8054L199.55 31.6754L197.482 33.7437ZM206.646 42.302H209.556V39.377H206.646V42.302ZM211.019 40.8395V32.7095H208.094V40.8395H211.019ZM209.556 34.172H215.136V31.247H209.556V34.172ZM213.674 32.7095V40.9595H216.599V32.7095H213.674ZM214.134 39.8944L208.554 45.1444L210.558 47.2747L216.138 42.0247L214.134 39.8944ZM208.094 46.2095V48.6695H211.019V46.2095H208.094ZM209.556 50.132H215.136V47.207H209.556V50.132ZM213.674 48.6695V54.2495H216.599V48.6695H213.674Z" fill="white" mask="url(#path-10-outside-5_127_162)"/>
</g>
<defs>
<filter id="filter0_f_127_162" x="0.0625" y="0.0625" width="254.875" height="94.875" filterUnits="userSpaceOnUse" color-interpolation-filters="sRGB">
<feFlood flood-opacity="0" result="BackgroundImageFix"/>
<feBlend mode="normal" in="SourceGraphic" in2="BackgroundImageFix" result="shape"/>
<feGaussianBlur stdDeviation="10.9688" result="effect1_foregroundBlur_127_162"/>
</filter>
<filter id="filter1_f_127_162" x="20.9211" y="10.772" width="216.152" height="68.355" filterUnits="userSpaceOnUse" color-interpolation-filters="sRGB">
<feFlood flood-opacity="0" result="BackgroundImageFix"/>
<feBlend mode="normal" in="SourceGraphic" in2="BackgroundImageFix" result="shape"/>
<feGaussianBlur stdDeviation="10.9688" result="effect1_foregroundBlur_127_162"/>
</filter>
<filter id="filter2_f_127_162" x="35.5461" y="25.397" width="186.902" height="39.105" filterUnits="userSpaceOnUse" color-interpolation-filters="sRGB">
<feFlood flood-opacity="0" result="BackgroundImageFix"/>
<feBlend mode="normal" in="SourceGraphic" in2="BackgroundImageFix" result="shape"/>
<feGaussianBlur stdDeviation="3.65625" result="effect1_foregroundBlur_127_162"/>
</filter>
<filter id="filter3_ddi_127_162" x="33.3524" y="30.5157" width="191.29" height="43.4925" filterUnits="userSpaceOnUse" color-interpolation-filters="sRGB">
<feFlood flood-opacity="0" result="BackgroundImageFix"/>
<feColorMatrix in="SourceAlpha" type="matrix" values="0 0 0 0 0 0 0 0 0 0 0 0 0 0 0 0 0 0 127 0" result="hardAlpha"/>
<feOffset dy="4.75313"/>
<feGaussianBlur stdDeviation="1.82812"/>
<feColorMatrix type="matrix" values="0 0 0 0 0.055 0 0 0 0 0 0 0 0 0 0.082 0 0 0 0.7 0"/>
<feBlend mode="multiply" in2="BackgroundImageFix" result="effect1_dropShadow_127_162"/>
<feColorMatrix in="SourceAlpha" type="matrix" values="0 0 0 0 0 0 0 0 0 0 0 0 0 0 0 0 0 0 127 0" result="hardAlpha"/>
<feOffset dy="7.3125"/>
<feGaussianBlur stdDeviation="4.75313"/>
<feColorMatrix type="matrix" values="0 0 0 0 0.514 0 0 0 0 0 0 0 0 0 0.756 0 0 0 1 0"/>
<feBlend mode="color-dodge" in2="effect1_dropShadow_127_162" result="effect2_dropShadow_127_162"/>
<feBlend mode="normal" in="SourceGraphic" in2="effect2_dropShadow_127_162" result="shape"/>
<feColorMatrix in="SourceAlpha" type="matrix" values="0 0 0 0 0 0 0 0 0 0 0 0 0 0 0 0 0 0 127 0" result="hardAlpha"/>
<feOffset dx="-0.475313" dy="0.950625"/>
<feGaussianBlur stdDeviation="0.237656"/>
<feComposite in2="hardAlpha" operator="arithmetic" k2="-1" k3="1"/>
<feColorMatrix type="matrix" values="0 0 0 0 1 0 0 0 0 1 0 0 0 0 1 0 0 0 0.5 0"/>
<feBlend mode="normal" in2="shape" result="effect3_innerShadow_127_162"/>
</filter>
<filter id="filter4_f_127_162" x="42.1274" y="31.9782" width="173.74" height="25.9425" filterUnits="userSpaceOnUse" color-interpolation-filters="sRGB">
<feFlood flood-opacity="0" result="BackgroundImageFix"/>
<feBlend mode="normal" in="SourceGraphic" in2="BackgroundImageFix" result="shape"/>
<feGaussianBlur stdDeviation="0.365625" result="effect1_foregroundBlur_127_162"/>
</filter>
<filter id="filter5_f_127_162" x="42.3711" y="32.222" width="173.252" height="25.455" filterUnits="userSpaceOnUse" color-interpolation-filters="sRGB">
<feFlood flood-opacity="0" result="BackgroundImageFix"/>
<feBlend mode="normal" in="SourceGraphic" in2="BackgroundImageFix" result="shape"/>
<feGaussianBlur stdDeviation="0.24375" result="effect1_foregroundBlur_127_162"/>
</filter>
</defs>
</svg>
