<svg width="396" height="114" viewBox="0 0 396 114" fill="none" xmlns="http://www.w3.org/2000/svg">
<g style="mix-blend-mode:hard-light" filter="url(#filter0_f_153_1568)">
<ellipse cx="197.8" cy="56.8" rx="175.8" ry="34.8" fill="#33E9C6" fill-opacity="0.1"/>
</g>
<g style="mix-blend-mode:hard-light" filter="url(#filter1_f_153_1568)">
<mask id="path-2-outside-1_153_1568" maskUnits="userSpaceOnUse" x="51.2998" y="33.8" width="298" height="51" fill="black">
<rect fill="white" x="51.2998" y="33.8" width="298" height="51"/>
<path d="M79.5305 79.7H70.2305V74.8H56.7305V38.9H92.9805V74.8H79.5305V79.7ZM83.6805 65.5V48.25H66.0805V65.5H70.2305V62.2H79.5305V65.5H83.6805ZM134.34 74.8H107.64L97.9902 65.5V38.9H107.34V65.5H124.99V38.9H134.34V74.8ZM174.548 74.8H139.348V57.3L157.748 38.9H174.548V48.25H161.598L157.398 52.45H171.948V61.8H148.698V65.5H174.548V74.8ZM215.883 74.8H179.533V65.5H206.533V61.65H189.183L179.533 52.35V38.9H211.433V48.25H188.883V52.35H206.233L215.883 61.65V74.8ZM235.75 74.8H226.4V48.25H215.1V38.9H247V48.25H235.75V74.8ZM261.344 74.8H251.994V38.9H261.344V74.8ZM275.7 74.8H266.35V38.9H302.6V56.4H293.3V48.25H275.7V52.45H289.05V61.8H275.7V74.8ZM343.859 74.8H307.709V65.5H325.209V61.15L312.309 48.25H307.609V38.9H316.159L329.709 52.45H334.559V38.9H343.859V52.65L334.559 61.4V65.5H343.859V74.8Z"/>
</mask>
<path d="M79.5305 79.7001V84.4532H84.2836V79.7001H79.5305ZM70.2305 79.7001H65.4773V84.4532H70.2305V79.7001ZM70.2305 74.8H74.9836V70.0469H70.2305V74.8ZM56.7305 74.8H51.9773V79.5532H56.7305V74.8ZM56.7305 38.9V34.1469H51.9773V38.9H56.7305ZM92.9805 38.9H97.7336V34.1469H92.9805V38.9ZM92.9805 74.8V79.5532H97.7336V74.8H92.9805ZM79.5305 74.8V70.0469H74.7773V74.8H79.5305ZM83.6805 65.5V70.2532H88.4336V65.5H83.6805ZM83.6805 48.25H88.4336V43.4969H83.6805V48.25ZM66.0805 48.25V43.4969H61.3273V48.25H66.0805ZM66.0805 65.5H61.3273V70.2532H66.0805V65.5ZM70.2305 65.5V70.2532H74.9836V65.5H70.2305ZM70.2305 62.2001V57.4469H65.4773V62.2001H70.2305ZM79.5305 62.2001H84.2836V57.4469H79.5305V62.2001ZM79.5305 65.5H74.7773V70.2532H79.5305V65.5ZM79.5305 74.9469H70.2305V84.4532H79.5305V74.9469ZM74.9836 79.7001V74.8H65.4773V79.7001H74.9836ZM70.2305 70.0469H56.7305V79.5532H70.2305V70.0469ZM61.4836 74.8V38.9H51.9773V74.8H61.4836ZM56.7305 43.6532H92.9805V34.1469H56.7305V43.6532ZM88.2273 38.9V74.8H97.7336V38.9H88.2273ZM92.9805 70.0469H79.5305V79.5532H92.9805V70.0469ZM74.7773 74.8V79.7001H84.2836V74.8H74.7773ZM88.4336 65.5V48.25H78.9273V65.5H88.4336ZM83.6805 43.4969H66.0805V53.0032H83.6805V43.4969ZM61.3273 48.25V65.5H70.8336V48.25H61.3273ZM66.0805 70.2532H70.2305V60.7469H66.0805V70.2532ZM74.9836 65.5V62.2001H65.4773V65.5H74.9836ZM70.2305 66.9532H79.5305V57.4469H70.2305V66.9532ZM74.7773 62.2001V65.5H84.2836V62.2001H74.7773ZM79.5305 70.2532H83.6805V60.7469H79.5305V70.2532ZM134.34 74.8V79.5532H139.093V74.8H134.34ZM107.64 74.8L104.342 78.2225L105.723 79.5532H107.64V74.8ZM97.9902 65.5H93.2371V67.5205L94.6919 68.9225L97.9902 65.5ZM97.9902 38.9V34.1469H93.2371V38.9H97.9902ZM107.34 38.9H112.093V34.1469H107.34V38.9ZM107.34 65.5H102.587V70.2532H107.34V65.5ZM124.99 65.5V70.2532H129.743V65.5H124.99ZM124.99 38.9V34.1469H120.237V38.9H124.99ZM134.34 38.9H139.093V34.1469H134.34V38.9ZM134.34 70.0469H107.64V79.5532H134.34V70.0469ZM110.939 71.3776L101.289 62.0776L94.6919 68.9225L104.342 78.2225L110.939 71.3776ZM102.743 65.5V38.9H93.2371V65.5H102.743ZM97.9902 43.6532H107.34V34.1469H97.9902V43.6532ZM102.587 38.9V65.5H112.093V38.9H102.587ZM107.34 70.2532H124.99V60.7469H107.34V70.2532ZM129.743 65.5V38.9H120.237V65.5H129.743ZM124.99 43.6532H134.34V34.1469H124.99V43.6532ZM129.587 38.9V74.8H139.093V38.9H129.587ZM174.548 74.8V79.5532H179.301V74.8H174.548ZM139.348 74.8H134.595V79.5532H139.348V74.8ZM139.348 57.3L135.987 53.9391L134.595 55.3312V57.3H139.348ZM157.748 38.9V34.1469H155.779L154.387 35.5391L157.748 38.9ZM174.548 38.9H179.301V34.1469H174.548V38.9ZM174.548 48.25V53.0032H179.301V48.25H174.548ZM161.598 48.25V43.4969H159.629L158.237 44.8891L161.598 48.25ZM157.398 52.45L154.037 49.0891L145.923 57.2032H157.398V52.45ZM171.948 52.45H176.701V47.6969H171.948V52.45ZM171.948 61.8V66.5532H176.701V61.8H171.948ZM148.698 61.8V57.0469H143.945V61.8H148.698ZM148.698 65.5H143.945V70.2532H148.698V65.5ZM174.548 65.5H179.301V60.7469H174.548V65.5ZM174.548 70.0469H139.348V79.5532H174.548V70.0469ZM144.101 74.8V57.3H134.595V74.8H144.101ZM142.709 60.661L161.109 42.261L154.387 35.5391L135.987 53.9391L142.709 60.661ZM157.748 43.6532H174.548V34.1469H157.748V43.6532ZM169.795 38.9V48.25H179.301V38.9H169.795ZM174.548 43.4969H161.598V53.0032H174.548V43.4969ZM158.237 44.8891L154.037 49.0891L160.759 55.811L164.959 51.611L158.237 44.8891ZM157.398 57.2032H171.948V47.6969H157.398V57.2032ZM167.195 52.45V61.8H176.701V52.45H167.195ZM171.948 57.0469H148.698V66.5532H171.948V57.0469ZM143.945 61.8V65.5H153.451V61.8H143.945ZM148.698 70.2532H174.548V60.7469H148.698V70.2532ZM169.795 65.5V74.8H179.301V65.5H169.795ZM215.883 74.8V79.5532H220.636V74.8H215.883ZM179.533 74.8H174.78V79.5532H179.533V74.8ZM179.533 65.5V60.7469H174.78V65.5H179.533ZM206.533 65.5V70.2532H211.286V65.5H206.533ZM206.533 61.65H211.286V56.8969H206.533V61.65ZM189.183 61.65L185.885 65.0725L187.266 66.4032H189.183V61.65ZM179.533 52.35H174.78V54.3705L176.235 55.7725L179.533 52.35ZM179.533 38.9V34.1469H174.78V38.9H179.533ZM211.433 38.9H216.186V34.1469H211.433V38.9ZM211.433 48.25V53.0032H216.186V48.25H211.433ZM188.883 48.25V43.4969H184.13V48.25H188.883ZM188.883 52.35H184.13V57.1032H188.883V52.35ZM206.233 52.35L209.532 48.9276L208.151 47.5969H206.233V52.35ZM215.883 61.65H220.636V59.6296L219.182 58.2276L215.883 61.65ZM215.883 70.0469H179.533V79.5532H215.883V70.0469ZM184.286 74.8V65.5H174.78V74.8H184.286ZM179.533 70.2532H206.533V60.7469H179.533V70.2532ZM211.286 65.5V61.65H201.78V65.5H211.286ZM206.533 56.8969H189.183V66.4032H206.533V56.8969ZM192.482 58.2276L182.832 48.9276L176.235 55.7725L185.885 65.0725L192.482 58.2276ZM184.286 52.35V38.9H174.78V52.35H184.286ZM179.533 43.6532H211.433V34.1469H179.533V43.6532ZM206.68 38.9V48.25H216.186V38.9H206.68ZM211.433 43.4969H188.883V53.0032H211.433V43.4969ZM184.13 48.25V52.35H193.636V48.25H184.13ZM188.883 57.1032H206.233V47.5969H188.883V57.1032ZM202.935 55.7725L212.585 65.0725L219.182 58.2276L209.532 48.9276L202.935 55.7725ZM211.13 61.65V74.8H220.636V61.65H211.13ZM235.75 74.8V79.5532H240.504V74.8H235.75ZM226.4 74.8H221.647V79.5532H226.4V74.8ZM226.4 48.25H231.154V43.4969H226.4V48.25ZM215.1 48.25H210.347V53.0032H215.1V48.25ZM215.1 38.9V34.1469H210.347V38.9H215.1ZM247 38.9H251.754V34.1469H247V38.9ZM247 48.25V53.0032H251.754V48.25H247ZM235.75 48.25V43.4969H230.997V48.25H235.75ZM235.75 70.0469H226.4V79.5532H235.75V70.0469ZM231.154 74.8V48.25H221.647V74.8H231.154ZM226.4 43.4969H215.1V53.0032H226.4V43.4969ZM219.854 48.25V38.9H210.347V48.25H219.854ZM215.1 43.6532H247V34.1469H215.1V43.6532ZM242.247 38.9V48.25H251.754V38.9H242.247ZM247 43.4969H235.75V53.0032H247V43.4969ZM230.997 48.25V74.8H240.504V48.25H230.997ZM261.344 74.8V79.5532H266.097V74.8H261.344ZM251.994 74.8H247.241V79.5532H251.994V74.8ZM251.994 38.9V34.1469H247.241V38.9H251.994ZM261.344 38.9H266.097V34.1469H261.344V38.9ZM261.344 70.0469H251.994V79.5532H261.344V70.0469ZM256.747 74.8V38.9H247.241V74.8H256.747ZM251.994 43.6532H261.344V34.1469H251.994V43.6532ZM256.591 38.9V74.8H266.097V38.9H256.591ZM275.7 74.8V79.5532H280.453V74.8H275.7ZM266.35 74.8H261.596V79.5532H266.35V74.8ZM266.35 38.9V34.1469H261.596V38.9H266.35ZM302.6 38.9H307.353V34.1469H302.6V38.9ZM302.6 56.4V61.1532H307.353V56.4H302.6ZM293.3 56.4H288.546V61.1532H293.3V56.4ZM293.3 48.25H298.053V43.4969H293.3V48.25ZM275.7 48.25V43.4969H270.946V48.25H275.7ZM275.7 52.45H270.946V57.2032H275.7V52.45ZM289.05 52.45H293.803V47.6969H289.05V52.45ZM289.05 61.8V66.5532H293.803V61.8H289.05ZM275.7 61.8V57.0469H270.946V61.8H275.7ZM275.7 70.0469H266.35V79.5532H275.7V70.0469ZM271.103 74.8V38.9H261.596V74.8H271.103ZM266.35 43.6532H302.6V34.1469H266.35V43.6532ZM297.846 38.9V56.4H307.353V38.9H297.846ZM302.6 51.6469H293.3V61.1532H302.6V51.6469ZM298.053 56.4V48.25H288.546V56.4H298.053ZM293.3 43.4969H275.7V53.0032H293.3V43.4969ZM270.946 48.25V52.45H280.453V48.25H270.946ZM275.7 57.2032H289.05V47.6969H275.7V57.2032ZM284.296 52.45V61.8H293.803V52.45H284.296ZM289.05 57.0469H275.7V66.5532H289.05V57.0469ZM270.946 61.8V74.8H280.453V61.8H270.946ZM343.859 74.8V79.5532H348.612V74.8H343.859ZM307.709 74.8H302.956V79.5532H307.709V74.8ZM307.709 65.5V60.7469H302.956V65.5H307.709ZM325.209 65.5V70.2532H329.962V65.5H325.209ZM325.209 61.15H329.962V59.1812L328.57 57.7891L325.209 61.15ZM312.309 48.25L315.67 44.8891L314.278 43.4969H312.309V48.25ZM307.609 48.25H302.856V53.0032H307.609V48.25ZM307.609 38.9V34.1469H302.856V38.9H307.609ZM316.159 38.9L319.52 35.5391L318.128 34.1469H316.159V38.9ZM329.709 52.45L326.348 55.811L327.741 57.2032H329.709V52.45ZM334.559 52.45V57.2032H339.312V52.45H334.559ZM334.559 38.9V34.1469H329.806V38.9H334.559ZM343.859 38.9H348.612V34.1469H343.859V38.9ZM343.859 52.65L347.116 56.1118L348.612 54.7042V52.65H343.859ZM334.559 61.4L331.302 57.9383L329.806 59.3459V61.4H334.559ZM334.559 65.5H329.806V70.2532H334.559V65.5ZM343.859 65.5H348.612V60.7469H343.859V65.5ZM343.859 70.0469H307.709V79.5532H343.859V70.0469ZM312.462 74.8V65.5H302.956V74.8H312.462ZM307.709 70.2532H325.209V60.7469H307.709V70.2532ZM329.962 65.5V61.15H320.456V65.5H329.962ZM328.57 57.7891L315.67 44.8891L308.948 51.611L321.848 64.511L328.57 57.7891ZM312.309 43.4969H307.609V53.0032H312.309V43.4969ZM312.362 48.25V38.9H302.856V48.25H312.362ZM307.609 43.6532H316.159V34.1469H307.609V43.6532ZM312.798 42.261L326.348 55.811L333.07 49.0891L319.52 35.5391L312.798 42.261ZM329.709 57.2032H334.559V47.6969H329.709V57.2032ZM339.312 52.45V38.9H329.806V52.45H339.312ZM334.559 43.6532H343.859V34.1469H334.559V43.6532ZM339.106 38.9V52.65H348.612V38.9H339.106ZM340.602 49.1883L331.302 57.9383L337.816 64.8618L347.116 56.1118L340.602 49.1883ZM329.806 61.4V65.5H339.312V61.4H329.806ZM334.559 70.2532H343.859V60.7469H334.559V70.2532ZM339.106 65.5V74.8H348.612V65.5H339.106Z" fill="#00A8A8" mask="url(#path-2-outside-1_153_1568)"/>
</g>
<g style="mix-blend-mode:hard-light" filter="url(#filter2_f_153_1568)">
<mask id="path-4-outside-2_153_1568" maskUnits="userSpaceOnUse" x="50.2998" y="31.8" width="300" height="55" fill="black">
<rect fill="white" x="50.2998" y="31.8" width="300" height="55"/>
<path d="M79.5305 79.7H70.2305V74.8H56.7305V38.9H92.9805V74.8H79.5305V79.7ZM83.6805 65.5V48.25H66.0805V65.5H70.2305V62.2H79.5305V65.5H83.6805ZM134.34 74.8H107.64L97.9902 65.5V38.9H107.34V65.5H124.99V38.9H134.34V74.8ZM174.548 74.8H139.348V57.3L157.748 38.9H174.548V48.25H161.598L157.398 52.45H171.948V61.8H148.698V65.5H174.548V74.8ZM215.883 74.8H179.533V65.5H206.533V61.65H189.183L179.533 52.35V38.9H211.433V48.25H188.883V52.35H206.233L215.883 61.65V74.8ZM235.75 74.8H226.4V48.25H215.1V38.9H247V48.25H235.75V74.8ZM261.344 74.8H251.994V38.9H261.344V74.8ZM275.7 74.8H266.35V38.9H302.6V56.4H293.3V48.25H275.7V52.45H289.05V61.8H275.7V74.8ZM343.859 74.8H307.709V65.5H325.209V61.15L312.309 48.25H307.609V38.9H316.159L329.709 52.45H334.559V38.9H343.859V52.65L334.559 61.4V65.5H343.859V74.8Z"/>
</mask>
<path d="M79.5305 79.7001V85.9157H85.7461V79.7001H79.5305ZM70.2305 79.7001H64.0148V85.9157H70.2305V79.7001ZM70.2305 74.8H76.4461V68.5844H70.2305V74.8ZM56.7305 74.8H50.5148V81.0157H56.7305V74.8ZM56.7305 38.9V32.6844H50.5148V38.9H56.7305ZM92.9805 38.9H99.1961V32.6844H92.9805V38.9ZM92.9805 74.8V81.0157H99.1961V74.8H92.9805ZM79.5305 74.8V68.5844H73.3148V74.8H79.5305ZM83.6805 65.5V71.7157H89.8961V65.5H83.6805ZM83.6805 48.25H89.8961V42.0344H83.6805V48.25ZM66.0805 48.25V42.0344H59.8648V48.25H66.0805ZM66.0805 65.5H59.8648V71.7157H66.0805V65.5ZM70.2305 65.5V71.7157H76.4461V65.5H70.2305ZM70.2305 62.2001V55.9844H64.0148V62.2001H70.2305ZM79.5305 62.2001H85.7461V55.9844H79.5305V62.2001ZM79.5305 65.5H73.3148V71.7157H79.5305V65.5ZM79.5305 73.4844H70.2305V85.9157H79.5305V73.4844ZM76.4461 79.7001V74.8H64.0148V79.7001H76.4461ZM70.2305 68.5844H56.7305V81.0157H70.2305V68.5844ZM62.9461 74.8V38.9H50.5148V74.8H62.9461ZM56.7305 45.1157H92.9805V32.6844H56.7305V45.1157ZM86.7648 38.9V74.8H99.1961V38.9H86.7648ZM92.9805 68.5844H79.5305V81.0157H92.9805V68.5844ZM73.3148 74.8V79.7001H85.7461V74.8H73.3148ZM89.8961 65.5V48.25H77.4648V65.5H89.8961ZM83.6805 42.0344H66.0805V54.4657H83.6805V42.0344ZM59.8648 48.25V65.5H72.2961V48.25H59.8648ZM66.0805 71.7157H70.2305V59.2844H66.0805V71.7157ZM76.4461 65.5V62.2001H64.0148V65.5H76.4461ZM70.2305 68.4157H79.5305V55.9844H70.2305V68.4157ZM73.3148 62.2001V65.5H85.7461V62.2001H73.3148ZM79.5305 71.7157H83.6805V59.2844H79.5305V71.7157ZM134.34 74.8V81.0157H140.556V74.8H134.34ZM107.64 74.8L103.327 79.2756L105.133 81.0157H107.64V74.8ZM97.9902 65.5H91.7746V68.1421L93.677 69.9756L97.9902 65.5ZM97.9902 38.9V32.6844H91.7746V38.9H97.9902ZM107.34 38.9H113.556V32.6844H107.34V38.9ZM107.34 65.5H101.125V71.7157H107.34V65.5ZM124.99 65.5V71.7157H131.206V65.5H124.99ZM124.99 38.9V32.6844H118.775V38.9H124.99ZM134.34 38.9H140.556V32.6844H134.34V38.9ZM134.34 68.5844H107.64V81.0157H134.34V68.5844ZM111.953 70.3245L102.303 61.0245L93.677 69.9756L103.327 79.2756L111.953 70.3245ZM104.206 65.5V38.9H91.7746V65.5H104.206ZM97.9902 45.1157H107.34V32.6844H97.9902V45.1157ZM101.125 38.9V65.5H113.556V38.9H101.125ZM107.34 71.7157H124.99V59.2844H107.34V71.7157ZM131.206 65.5V38.9H118.775V65.5H131.206ZM124.99 45.1157H134.34V32.6844H124.99V45.1157ZM128.125 38.9V74.8H140.556V38.9H128.125ZM174.548 74.8V81.0157H180.763V74.8H174.548ZM139.348 74.8H133.132V81.0157H139.348V74.8ZM139.348 57.3L134.953 52.9049L133.132 54.7255V57.3H139.348ZM157.748 38.9V32.6844H155.173L153.353 34.5049L157.748 38.9ZM174.548 38.9H180.763V32.6844H174.548V38.9ZM174.548 48.25V54.4657H180.763V48.25H174.548ZM161.598 48.25V42.0344H159.023L157.203 43.8549L161.598 48.25ZM157.398 52.45L153.003 48.0549L142.392 58.6657H157.398V52.45ZM171.948 52.45H178.163V46.2344H171.948V52.45ZM171.948 61.8V68.0157H178.163V61.8H171.948ZM148.698 61.8V55.5844H142.482V61.8H148.698ZM148.698 65.5H142.482V71.7157H148.698V65.5ZM174.548 65.5H180.763V59.2844H174.548V65.5ZM174.548 68.5844H139.348V81.0157H174.548V68.5844ZM145.563 74.8V57.3H133.132V74.8H145.563ZM143.743 61.6952L162.143 43.2952L153.353 34.5049L134.953 52.9049L143.743 61.6952ZM157.748 45.1157H174.548V32.6844H157.748V45.1157ZM168.332 38.9V48.25H180.763V38.9H168.332ZM174.548 42.0344H161.598V54.4657H174.548V42.0344ZM157.203 43.8549L153.003 48.0549L161.793 56.8452L165.993 52.6452L157.203 43.8549ZM157.398 58.6657H171.948V46.2344H157.398V58.6657ZM165.732 52.45V61.8H178.163V52.45H165.732ZM171.948 55.5844H148.698V68.0157H171.948V55.5844ZM142.482 61.8V65.5H154.913V61.8H142.482ZM148.698 71.7157H174.548V59.2844H148.698V71.7157ZM168.332 65.5V74.8H180.763V65.5H168.332ZM215.883 74.8V81.0157H222.099V74.8H215.883ZM179.533 74.8H173.318V81.0157H179.533V74.8ZM179.533 65.5V59.2844H173.318V65.5H179.533ZM206.533 65.5V71.7157H212.749V65.5H206.533ZM206.533 61.65H212.749V55.4344H206.533V61.65ZM189.183 61.65L184.87 66.1256L186.676 67.8657H189.183V61.65ZM179.533 52.35H173.318V54.9921L175.22 56.8256L179.533 52.35ZM179.533 38.9V32.6844H173.318V38.9H179.533ZM211.433 38.9H217.649V32.6844H211.433V38.9ZM211.433 48.25V54.4657H217.649V48.25H211.433ZM188.883 48.25V42.0344H182.668V48.25H188.883ZM188.883 52.35H182.668V58.5657H188.883V52.35ZM206.233 52.35L210.546 47.8745L208.741 46.1344H206.233V52.35ZM215.883 61.65H222.099V59.008L220.196 57.1745L215.883 61.65ZM215.883 68.5844H179.533V81.0157H215.883V68.5844ZM185.749 74.8V65.5H173.318V74.8H185.749ZM179.533 71.7157H206.533V59.2844H179.533V71.7157ZM212.749 65.5V61.65H200.318V65.5H212.749ZM206.533 55.4344H189.183V67.8657H206.533V55.4344ZM193.496 57.1745L183.846 47.8745L175.22 56.8256L184.87 66.1256L193.496 57.1745ZM185.749 52.35V38.9H173.318V52.35H185.749ZM179.533 45.1157H211.433V32.6844H179.533V45.1157ZM205.218 38.9V48.25H217.649V38.9H205.218ZM211.433 42.0344H188.883V54.4657H211.433V42.0344ZM182.668 48.25V52.35H195.099V48.25H182.668ZM188.883 58.5657H206.233V46.1344H188.883V58.5657ZM201.92 56.8256L211.57 66.1256L220.196 57.1745L210.546 47.8745L201.92 56.8256ZM209.668 61.65V74.8H222.099V61.65H209.668ZM235.75 74.8V81.0157H241.966V74.8H235.75ZM226.4 74.8H220.185V81.0157H226.4V74.8ZM226.4 48.25H232.616V42.0344H226.4V48.25ZM215.1 48.25H208.885V54.4657H215.1V48.25ZM215.1 38.9V32.6844H208.885V38.9H215.1ZM247 38.9H253.216V32.6844H247V38.9ZM247 48.25V54.4657H253.216V48.25H247ZM235.75 48.25V42.0344H229.535V48.25H235.75ZM235.75 68.5844H226.4V81.0157H235.75V68.5844ZM232.616 74.8V48.25H220.185V74.8H232.616ZM226.4 42.0344H215.1V54.4657H226.4V42.0344ZM221.316 48.25V38.9H208.885V48.25H221.316ZM215.1 45.1157H247V32.6844H215.1V45.1157ZM240.785 38.9V48.25H253.216V38.9H240.785ZM247 42.0344H235.75V54.4657H247V42.0344ZM229.535 48.25V74.8H241.966V48.25H229.535ZM261.344 74.8V81.0157H267.56V74.8H261.344ZM251.994 74.8H245.779V81.0157H251.994V74.8ZM251.994 38.9V32.6844H245.779V38.9H251.994ZM261.344 38.9H267.56V32.6844H261.344V38.9ZM261.344 68.5844H251.994V81.0157H261.344V68.5844ZM258.21 74.8V38.9H245.779V74.8H258.21ZM251.994 45.1157H261.344V32.6844H251.994V45.1157ZM255.129 38.9V74.8H267.56V38.9H255.129ZM275.7 74.8V81.0157H281.915V74.8H275.7ZM266.35 74.8H260.134V81.0157H266.35V74.8ZM266.35 38.9V32.6844H260.134V38.9H266.35ZM302.6 38.9H308.815V32.6844H302.6V38.9ZM302.6 56.4V62.6157H308.815V56.4H302.6ZM293.3 56.4H287.084V62.6157H293.3V56.4ZM293.3 48.25H299.515V42.0344H293.3V48.25ZM275.7 48.25V42.0344H269.484V48.25H275.7ZM275.7 52.45H269.484V58.6657H275.7V52.45ZM289.05 52.45H295.265V46.2344H289.05V52.45ZM289.05 61.8V68.0157H295.265V61.8H289.05ZM275.7 61.8V55.5844H269.484V61.8H275.7ZM275.7 68.5844H266.35V81.0157H275.7V68.5844ZM272.565 74.8V38.9H260.134V74.8H272.565ZM266.35 45.1157H302.6V32.6844H266.35V45.1157ZM296.384 38.9V56.4H308.815V38.9H296.384ZM302.6 50.1844H293.3V62.6157H302.6V50.1844ZM299.515 56.4V48.25H287.084V56.4H299.515ZM293.3 42.0344H275.7V54.4657H293.3V42.0344ZM269.484 48.25V52.45H281.915V48.25H269.484ZM275.7 58.6657H289.05V46.2344H275.7V58.6657ZM282.834 52.45V61.8H295.265V52.45H282.834ZM289.05 55.5844H275.7V68.0157H289.05V55.5844ZM269.484 61.8V74.8H281.915V61.8H269.484ZM343.859 74.8V81.0157H350.075V74.8H343.859ZM307.709 74.8H301.494V81.0157H307.709V74.8ZM307.709 65.5V59.2844H301.494V65.5H307.709ZM325.209 65.5V71.7157H331.425V65.5H325.209ZM325.209 61.15H331.425V58.5755L329.604 56.7549L325.209 61.15ZM312.309 48.25L316.704 43.8549L314.884 42.0344H312.309V48.25ZM307.609 48.25H301.394V54.4657H307.609V48.25ZM307.609 38.9V32.6844H301.394V38.9H307.609ZM316.159 38.9L320.554 34.5049L318.734 32.6844H316.159V38.9ZM329.709 52.45L325.314 56.8452L327.135 58.6657H329.709V52.45ZM334.559 52.45V58.6657H340.775V52.45H334.559ZM334.559 38.9V32.6844H328.344V38.9H334.559ZM343.859 38.9H350.075V32.6844H343.859V38.9ZM343.859 52.65L348.119 57.177L350.075 55.3363V52.65H343.859ZM334.559 61.4L330.3 56.8731L328.344 58.7138V61.4H334.559ZM334.559 65.5H328.344V71.7157H334.559V65.5ZM343.859 65.5H350.075V59.2844H343.859V65.5ZM343.859 68.5844H307.709V81.0157H343.859V68.5844ZM313.925 74.8V65.5H301.494V74.8H313.925ZM307.709 71.7157H325.209V59.2844H307.709V71.7157ZM331.425 65.5V61.15H318.994V65.5H331.425ZM329.604 56.7549L316.704 43.8549L307.914 52.6452L320.814 65.5452L329.604 56.7549ZM312.309 42.0344H307.609V54.4657H312.309V42.0344ZM313.825 48.25V38.9H301.394V48.25H313.825ZM307.609 45.1157H316.159V32.6844H307.609V45.1157ZM311.764 43.2952L325.314 56.8452L334.104 48.0549L320.554 34.5049L311.764 43.2952ZM329.709 58.6657H334.559V46.2344H329.709V58.6657ZM340.775 52.45V38.9H328.344V52.45H340.775ZM334.559 45.1157H343.859V32.6844H334.559V45.1157ZM337.644 38.9V52.65H350.075V38.9H337.644ZM339.6 48.1231L330.3 56.8731L338.819 65.927L348.119 57.177L339.6 48.1231ZM328.344 61.4V65.5H340.775V61.4H328.344ZM334.559 71.7157H343.859V59.2844H334.559V71.7157ZM337.644 65.5V74.8H350.075V65.5H337.644Z" fill="#00A8A8" mask="url(#path-4-outside-2_153_1568)"/>
</g>
<g style="mix-blend-mode:hard-light" filter="url(#filter3_ddi_153_1568)">
<mask id="path-6-outside-3_153_1568" maskUnits="userSpaceOnUse" x="51.2998" y="33.8" width="298" height="51" fill="black">
<rect fill="white" x="51.2998" y="33.8" width="298" height="51"/>
<path d="M79.5305 79.7H70.2305V74.8H56.7305V38.9H92.9805V74.8H79.5305V79.7ZM83.6805 65.5V48.25H66.0805V65.5H70.2305V62.2H79.5305V65.5H83.6805ZM134.34 74.8H107.64L97.9902 65.5V38.9H107.34V65.5H124.99V38.9H134.34V74.8ZM174.548 74.8H139.348V57.3L157.748 38.9H174.548V48.25H161.598L157.398 52.45H171.948V61.8H148.698V65.5H174.548V74.8ZM215.883 74.8H179.533V65.5H206.533V61.65H189.183L179.533 52.35V38.9H211.433V48.25H188.883V52.35H206.233L215.883 61.65V74.8ZM235.75 74.8H226.4V48.25H215.1V38.9H247V48.25H235.75V74.8ZM261.344 74.8H251.994V38.9H261.344V74.8ZM275.7 74.8H266.35V38.9H302.6V56.4H293.3V48.25H275.7V52.45H289.05V61.8H275.7V74.8ZM343.859 74.8H307.709V65.5H325.209V61.15L312.309 48.25H307.609V38.9H316.159L329.709 52.45H334.559V38.9H343.859V52.65L334.559 61.4V65.5H343.859V74.8Z"/>
</mask>
<path d="M79.5305 79.7001V84.4532H84.2836V79.7001H79.5305ZM70.2305 79.7001H65.4773V84.4532H70.2305V79.7001ZM70.2305 74.8H74.9836V70.0469H70.2305V74.8ZM56.7305 74.8H51.9773V79.5532H56.7305V74.8ZM56.7305 38.9V34.1469H51.9773V38.9H56.7305ZM92.9805 38.9H97.7336V34.1469H92.9805V38.9ZM92.9805 74.8V79.5532H97.7336V74.8H92.9805ZM79.5305 74.8V70.0469H74.7773V74.8H79.5305ZM83.6805 65.5V70.2532H88.4336V65.5H83.6805ZM83.6805 48.25H88.4336V43.4969H83.6805V48.25ZM66.0805 48.25V43.4969H61.3273V48.25H66.0805ZM66.0805 65.5H61.3273V70.2532H66.0805V65.5ZM70.2305 65.5V70.2532H74.9836V65.5H70.2305ZM70.2305 62.2001V57.4469H65.4773V62.2001H70.2305ZM79.5305 62.2001H84.2836V57.4469H79.5305V62.2001ZM79.5305 65.5H74.7773V70.2532H79.5305V65.5ZM79.5305 74.9469H70.2305V84.4532H79.5305V74.9469ZM74.9836 79.7001V74.8H65.4773V79.7001H74.9836ZM70.2305 70.0469H56.7305V79.5532H70.2305V70.0469ZM61.4836 74.8V38.9H51.9773V74.8H61.4836ZM56.7305 43.6532H92.9805V34.1469H56.7305V43.6532ZM88.2273 38.9V74.8H97.7336V38.9H88.2273ZM92.9805 70.0469H79.5305V79.5532H92.9805V70.0469ZM74.7773 74.8V79.7001H84.2836V74.8H74.7773ZM88.4336 65.5V48.25H78.9273V65.5H88.4336ZM83.6805 43.4969H66.0805V53.0032H83.6805V43.4969ZM61.3273 48.25V65.5H70.8336V48.25H61.3273ZM66.0805 70.2532H70.2305V60.7469H66.0805V70.2532ZM74.9836 65.5V62.2001H65.4773V65.5H74.9836ZM70.2305 66.9532H79.5305V57.4469H70.2305V66.9532ZM74.7773 62.2001V65.5H84.2836V62.2001H74.7773ZM79.5305 70.2532H83.6805V60.7469H79.5305V70.2532ZM134.34 74.8V79.5532H139.093V74.8H134.34ZM107.64 74.8L104.342 78.2225L105.723 79.5532H107.64V74.8ZM97.9902 65.5H93.2371V67.5205L94.6919 68.9225L97.9902 65.5ZM97.9902 38.9V34.1469H93.2371V38.9H97.9902ZM107.34 38.9H112.093V34.1469H107.34V38.9ZM107.34 65.5H102.587V70.2532H107.34V65.5ZM124.99 65.5V70.2532H129.743V65.5H124.99ZM124.99 38.9V34.1469H120.237V38.9H124.99ZM134.34 38.9H139.093V34.1469H134.34V38.9ZM134.34 70.0469H107.64V79.5532H134.34V70.0469ZM110.939 71.3776L101.289 62.0776L94.6919 68.9225L104.342 78.2225L110.939 71.3776ZM102.743 65.5V38.9H93.2371V65.5H102.743ZM97.9902 43.6532H107.34V34.1469H97.9902V43.6532ZM102.587 38.9V65.5H112.093V38.9H102.587ZM107.34 70.2532H124.99V60.7469H107.34V70.2532ZM129.743 65.5V38.9H120.237V65.5H129.743ZM124.99 43.6532H134.34V34.1469H124.99V43.6532ZM129.587 38.9V74.8H139.093V38.9H129.587ZM174.548 74.8V79.5532H179.301V74.8H174.548ZM139.348 74.8H134.595V79.5532H139.348V74.8ZM139.348 57.3L135.987 53.9391L134.595 55.3312V57.3H139.348ZM157.748 38.9V34.1469H155.779L154.387 35.5391L157.748 38.9ZM174.548 38.9H179.301V34.1469H174.548V38.9ZM174.548 48.25V53.0032H179.301V48.25H174.548ZM161.598 48.25V43.4969H159.629L158.237 44.8891L161.598 48.25ZM157.398 52.45L154.037 49.0891L145.923 57.2032H157.398V52.45ZM171.948 52.45H176.701V47.6969H171.948V52.45ZM171.948 61.8V66.5532H176.701V61.8H171.948ZM148.698 61.8V57.0469H143.945V61.8H148.698ZM148.698 65.5H143.945V70.2532H148.698V65.5ZM174.548 65.5H179.301V60.7469H174.548V65.5ZM174.548 70.0469H139.348V79.5532H174.548V70.0469ZM144.101 74.8V57.3H134.595V74.8H144.101ZM142.709 60.661L161.109 42.261L154.387 35.5391L135.987 53.9391L142.709 60.661ZM157.748 43.6532H174.548V34.1469H157.748V43.6532ZM169.795 38.9V48.25H179.301V38.9H169.795ZM174.548 43.4969H161.598V53.0032H174.548V43.4969ZM158.237 44.8891L154.037 49.0891L160.759 55.811L164.959 51.611L158.237 44.8891ZM157.398 57.2032H171.948V47.6969H157.398V57.2032ZM167.195 52.45V61.8H176.701V52.45H167.195ZM171.948 57.0469H148.698V66.5532H171.948V57.0469ZM143.945 61.8V65.5H153.451V61.8H143.945ZM148.698 70.2532H174.548V60.7469H148.698V70.2532ZM169.795 65.5V74.8H179.301V65.5H169.795ZM215.883 74.8V79.5532H220.636V74.8H215.883ZM179.533 74.8H174.78V79.5532H179.533V74.8ZM179.533 65.5V60.7469H174.78V65.5H179.533ZM206.533 65.5V70.2532H211.286V65.5H206.533ZM206.533 61.65H211.286V56.8969H206.533V61.65ZM189.183 61.65L185.885 65.0725L187.266 66.4032H189.183V61.65ZM179.533 52.35H174.78V54.3705L176.235 55.7725L179.533 52.35ZM179.533 38.9V34.1469H174.78V38.9H179.533ZM211.433 38.9H216.186V34.1469H211.433V38.9ZM211.433 48.25V53.0032H216.186V48.25H211.433ZM188.883 48.25V43.4969H184.13V48.25H188.883ZM188.883 52.35H184.13V57.1032H188.883V52.35ZM206.233 52.35L209.532 48.9276L208.151 47.5969H206.233V52.35ZM215.883 61.65H220.636V59.6296L219.182 58.2276L215.883 61.65ZM215.883 70.0469H179.533V79.5532H215.883V70.0469ZM184.286 74.8V65.5H174.78V74.8H184.286ZM179.533 70.2532H206.533V60.7469H179.533V70.2532ZM211.286 65.5V61.65H201.78V65.5H211.286ZM206.533 56.8969H189.183V66.4032H206.533V56.8969ZM192.482 58.2276L182.832 48.9276L176.235 55.7725L185.885 65.0725L192.482 58.2276ZM184.286 52.35V38.9H174.78V52.35H184.286ZM179.533 43.6532H211.433V34.1469H179.533V43.6532ZM206.68 38.9V48.25H216.186V38.9H206.68ZM211.433 43.4969H188.883V53.0032H211.433V43.4969ZM184.13 48.25V52.35H193.636V48.25H184.13ZM188.883 57.1032H206.233V47.5969H188.883V57.1032ZM202.935 55.7725L212.585 65.0725L219.182 58.2276L209.532 48.9276L202.935 55.7725ZM211.13 61.65V74.8H220.636V61.65H211.13ZM235.75 74.8V79.5532H240.504V74.8H235.75ZM226.4 74.8H221.647V79.5532H226.4V74.8ZM226.4 48.25H231.154V43.4969H226.4V48.25ZM215.1 48.25H210.347V53.0032H215.1V48.25ZM215.1 38.9V34.1469H210.347V38.9H215.1ZM247 38.9H251.754V34.1469H247V38.9ZM247 48.25V53.0032H251.754V48.25H247ZM235.75 48.25V43.4969H230.997V48.25H235.75ZM235.75 70.0469H226.4V79.5532H235.75V70.0469ZM231.154 74.8V48.25H221.647V74.8H231.154ZM226.4 43.4969H215.1V53.0032H226.4V43.4969ZM219.854 48.25V38.9H210.347V48.25H219.854ZM215.1 43.6532H247V34.1469H215.1V43.6532ZM242.247 38.9V48.25H251.754V38.9H242.247ZM247 43.4969H235.75V53.0032H247V43.4969ZM230.997 48.25V74.8H240.504V48.25H230.997ZM261.344 74.8V79.5532H266.097V74.8H261.344ZM251.994 74.8H247.241V79.5532H251.994V74.8ZM251.994 38.9V34.1469H247.241V38.9H251.994ZM261.344 38.9H266.097V34.1469H261.344V38.9ZM261.344 70.0469H251.994V79.5532H261.344V70.0469ZM256.747 74.8V38.9H247.241V74.8H256.747ZM251.994 43.6532H261.344V34.1469H251.994V43.6532ZM256.591 38.9V74.8H266.097V38.9H256.591ZM275.7 74.8V79.5532H280.453V74.8H275.7ZM266.35 74.8H261.596V79.5532H266.35V74.8ZM266.35 38.9V34.1469H261.596V38.9H266.35ZM302.6 38.9H307.353V34.1469H302.6V38.9ZM302.6 56.4V61.1532H307.353V56.4H302.6ZM293.3 56.4H288.546V61.1532H293.3V56.4ZM293.3 48.25H298.053V43.4969H293.3V48.25ZM275.7 48.25V43.4969H270.946V48.25H275.7ZM275.7 52.45H270.946V57.2032H275.7V52.45ZM289.05 52.45H293.803V47.6969H289.05V52.45ZM289.05 61.8V66.5532H293.803V61.8H289.05ZM275.7 61.8V57.0469H270.946V61.8H275.7ZM275.7 70.0469H266.35V79.5532H275.7V70.0469ZM271.103 74.8V38.9H261.596V74.8H271.103ZM266.35 43.6532H302.6V34.1469H266.35V43.6532ZM297.846 38.9V56.4H307.353V38.9H297.846ZM302.6 51.6469H293.3V61.1532H302.6V51.6469ZM298.053 56.4V48.25H288.546V56.4H298.053ZM293.3 43.4969H275.7V53.0032H293.3V43.4969ZM270.946 48.25V52.45H280.453V48.25H270.946ZM275.7 57.2032H289.05V47.6969H275.7V57.2032ZM284.296 52.45V61.8H293.803V52.45H284.296ZM289.05 57.0469H275.7V66.5532H289.05V57.0469ZM270.946 61.8V74.8H280.453V61.8H270.946ZM343.859 74.8V79.5532H348.612V74.8H343.859ZM307.709 74.8H302.956V79.5532H307.709V74.8ZM307.709 65.5V60.7469H302.956V65.5H307.709ZM325.209 65.5V70.2532H329.962V65.5H325.209ZM325.209 61.15H329.962V59.1812L328.57 57.7891L325.209 61.15ZM312.309 48.25L315.67 44.8891L314.278 43.4969H312.309V48.25ZM307.609 48.25H302.856V53.0032H307.609V48.25ZM307.609 38.9V34.1469H302.856V38.9H307.609ZM316.159 38.9L319.52 35.5391L318.128 34.1469H316.159V38.9ZM329.709 52.45L326.348 55.811L327.741 57.2032H329.709V52.45ZM334.559 52.45V57.2032H339.312V52.45H334.559ZM334.559 38.9V34.1469H329.806V38.9H334.559ZM343.859 38.9H348.612V34.1469H343.859V38.9ZM343.859 52.65L347.116 56.1118L348.612 54.7042V52.65H343.859ZM334.559 61.4L331.302 57.9383L329.806 59.3459V61.4H334.559ZM334.559 65.5H329.806V70.2532H334.559V65.5ZM343.859 65.5H348.612V60.7469H343.859V65.5ZM343.859 70.0469H307.709V79.5532H343.859V70.0469ZM312.462 74.8V65.5H302.956V74.8H312.462ZM307.709 70.2532H325.209V60.7469H307.709V70.2532ZM329.962 65.5V61.15H320.456V65.5H329.962ZM328.57 57.7891L315.67 44.8891L308.948 51.611L321.848 64.511L328.57 57.7891ZM312.309 43.4969H307.609V53.0032H312.309V43.4969ZM312.362 48.25V38.9H302.856V48.25H312.362ZM307.609 43.6532H316.159V34.1469H307.609V43.6532ZM312.798 42.261L326.348 55.811L333.07 49.0891L319.52 35.5391L312.798 42.261ZM329.709 57.2032H334.559V47.6969H329.709V57.2032ZM339.312 52.45V38.9H329.806V52.45H339.312ZM334.559 43.6532H343.859V34.1469H334.559V43.6532ZM339.106 38.9V52.65H348.612V38.9H339.106ZM340.602 49.1883L331.302 57.9383L337.816 64.8618L347.116 56.1118L340.602 49.1883ZM329.806 61.4V65.5H339.312V61.4H329.806ZM334.559 70.2532H343.859V60.7469H334.559V70.2532ZM339.106 65.5V74.8H348.612V65.5H339.106Z" fill="#33E9C6" fill-opacity="0.2" mask="url(#path-6-outside-3_153_1568)"/>
</g>
<g filter="url(#filter4_f_153_1568)">
<mask id="path-8-outside-4_153_1568" maskUnits="userSpaceOnUse" x="53.2998" y="35.8" width="294" height="47" fill="black">
<rect fill="white" x="53.2998" y="35.8" width="294" height="47"/>
<path d="M79.5305 79.7H70.2305V74.8H56.7305V38.9H92.9805V74.8H79.5305V79.7ZM83.6805 65.5V48.25H66.0805V65.5H70.2305V62.2H79.5305V65.5H83.6805ZM134.34 74.8H107.64L97.9902 65.5V38.9H107.34V65.5H124.99V38.9H134.34V74.8ZM174.548 74.8H139.348V57.3L157.748 38.9H174.548V48.25H161.598L157.398 52.45H171.948V61.8H148.698V65.5H174.548V74.8ZM215.883 74.8H179.533V65.5H206.533V61.65H189.183L179.533 52.35V38.9H211.433V48.25H188.883V52.35H206.233L215.883 61.65V74.8ZM235.75 74.8H226.4V48.25H215.1V38.9H247V48.25H235.75V74.8ZM261.344 74.8H251.994V38.9H261.344V74.8ZM275.7 74.8H266.35V38.9H302.6V56.4H293.3V48.25H275.7V52.45H289.05V61.8H275.7V74.8ZM343.859 74.8H307.709V65.5H325.209V61.15L312.309 48.25H307.609V38.9H316.159L329.709 52.45H334.559V38.9H343.859V52.65L334.559 61.4V65.5H343.859V74.8Z"/>
</mask>
<path d="M79.5305 79.7001V82.625H82.4555V79.7001H79.5305ZM70.2305 79.7001H67.3055V82.625H70.2305V79.7001ZM70.2305 74.8H73.1555V71.875H70.2305V74.8ZM56.7305 74.8H53.8055V77.725H56.7305V74.8ZM56.7305 38.9V35.975H53.8055V38.9H56.7305ZM92.9805 38.9H95.9055V35.975H92.9805V38.9ZM92.9805 74.8V77.725H95.9055V74.8H92.9805ZM79.5305 74.8V71.875H76.6055V74.8H79.5305ZM83.6805 65.5V68.425H86.6055V65.5H83.6805ZM83.6805 48.25H86.6055V45.325H83.6805V48.25ZM66.0805 48.25V45.325H63.1555V48.25H66.0805ZM66.0805 65.5H63.1555V68.425H66.0805V65.5ZM70.2305 65.5V68.425H73.1555V65.5H70.2305ZM70.2305 62.2001V59.275H67.3055V62.2001H70.2305ZM79.5305 62.2001H82.4555V59.275H79.5305V62.2001ZM79.5305 65.5H76.6055V68.425H79.5305V65.5ZM79.5305 76.775H70.2305V82.625H79.5305V76.775ZM73.1555 79.7001V74.8H67.3055V79.7001H73.1555ZM70.2305 71.875H56.7305V77.725H70.2305V71.875ZM59.6555 74.8V38.9H53.8055V74.8H59.6555ZM56.7305 41.825H92.9805V35.975H56.7305V41.825ZM90.0555 38.9V74.8H95.9055V38.9H90.0555ZM92.9805 71.875H79.5305V77.725H92.9805V71.875ZM76.6055 74.8V79.7001H82.4555V74.8H76.6055ZM86.6055 65.5V48.25H80.7555V65.5H86.6055ZM83.6805 45.325H66.0805V51.175H83.6805V45.325ZM63.1555 48.25V65.5H69.0055V48.25H63.1555ZM66.0805 68.425H70.2305V62.5751H66.0805V68.425ZM73.1555 65.5V62.2001H67.3055V65.5H73.1555ZM70.2305 65.125H79.5305V59.275H70.2305V65.125ZM76.6055 62.2001V65.5H82.4555V62.2001H76.6055ZM79.5305 68.425H83.6805V62.5751H79.5305V68.425ZM134.34 74.8V77.725H137.265V74.8H134.34ZM107.64 74.8L105.61 76.9062L106.46 77.725H107.64V74.8ZM97.9902 65.5H95.0652V66.7434L95.9605 67.6062L97.9902 65.5ZM97.9902 38.9V35.975H95.0652V38.9H97.9902ZM107.34 38.9H110.265V35.975H107.34V38.9ZM107.34 65.5H104.415V68.425H107.34V65.5ZM124.99 65.5V68.425H127.915V65.5H124.99ZM124.99 38.9V35.975H122.065V38.9H124.99ZM134.34 38.9H137.265V35.975H134.34V38.9ZM134.34 71.875H107.64V77.725H134.34V71.875ZM109.67 72.6939L100.02 63.3939L95.9605 67.6062L105.61 76.9062L109.67 72.6939ZM100.915 65.5V38.9H95.0652V65.5H100.915ZM97.9902 41.825H107.34V35.975H97.9902V41.825ZM104.415 38.9V65.5H110.265V38.9H104.415ZM107.34 68.425H124.99V62.5751H107.34V68.425ZM127.915 65.5V38.9H122.065V65.5H127.915ZM124.99 41.825H134.34V35.975H124.99V41.825ZM131.415 38.9V74.8H137.265V38.9H131.415ZM174.548 74.8V77.725H177.473V74.8H174.548ZM139.348 74.8H136.423V77.725H139.348V74.8ZM139.348 57.3L137.279 55.2318L136.423 56.0885V57.3H139.348ZM157.748 38.9V35.975H156.536L155.679 36.8318L157.748 38.9ZM174.548 38.9H177.473V35.975H174.548V38.9ZM174.548 48.25V51.175H177.473V48.25H174.548ZM161.598 48.25V45.325H160.386L159.529 46.1818L161.598 48.25ZM157.398 52.45L155.329 50.3818L150.336 55.375H157.398V52.45ZM171.948 52.45H174.873V49.525H171.948V52.45ZM171.948 61.8V64.725H174.873V61.8H171.948ZM148.698 61.8V58.875H145.773V61.8H148.698ZM148.698 65.5H145.773V68.425H148.698V65.5ZM174.548 65.5H177.473V62.5751H174.548V65.5ZM174.548 71.875H139.348V77.725H174.548V71.875ZM142.273 74.8V57.3H136.423V74.8H142.273ZM141.416 59.3683L159.816 40.9683L155.679 36.8318L137.279 55.2318L141.416 59.3683ZM157.748 41.825H174.548V35.975H157.748V41.825ZM171.623 38.9V48.25H177.473V38.9H171.623ZM174.548 45.325H161.598V51.175H174.548V45.325ZM159.529 46.1818L155.329 50.3818L159.466 54.5183L163.666 50.3183L159.529 46.1818ZM157.398 55.375H171.948V49.525H157.398V55.375ZM169.023 52.45V61.8H174.873V52.45H169.023ZM171.948 58.875H148.698V64.725H171.948V58.875ZM145.773 61.8V65.5H151.623V61.8H145.773ZM148.698 68.425H174.548V62.5751H148.698V68.425ZM171.623 65.5V74.8H177.473V65.5H171.623ZM215.883 74.8V77.725H218.808V74.8H215.883ZM179.533 74.8H176.608V77.725H179.533V74.8ZM179.533 65.5V62.5751H176.608V65.5H179.533ZM206.533 65.5V68.425H209.458V65.5H206.533ZM206.533 61.65H209.458V58.725H206.533V61.65ZM189.183 61.65L187.153 63.7562L188.003 64.575H189.183V61.65ZM179.533 52.35H176.608V53.5934L177.503 54.4562L179.533 52.35ZM179.533 38.9V35.975H176.608V38.9H179.533ZM211.433 38.9H214.358V35.975H211.433V38.9ZM211.433 48.25V51.175H214.358V48.25H211.433ZM188.883 48.25V45.325H185.958V48.25H188.883ZM188.883 52.35H185.958V55.275H188.883V52.35ZM206.233 52.35L208.263 50.2439L207.413 49.425H206.233V52.35ZM215.883 61.65H218.808V60.4067L217.913 59.5439L215.883 61.65ZM215.883 71.875H179.533V77.725H215.883V71.875ZM182.458 74.8V65.5H176.608V74.8H182.458ZM179.533 68.425H206.533V62.5751H179.533V68.425ZM209.458 65.5V61.65H203.608V65.5H209.458ZM206.533 58.725H189.183V64.575H206.533V58.725ZM191.213 59.5439L181.563 50.2439L177.503 54.4562L187.153 63.7562L191.213 59.5439ZM182.458 52.35V38.9H176.608V52.35H182.458ZM179.533 41.825H211.433V35.975H179.533V41.825ZM208.508 38.9V48.25H214.358V38.9H208.508ZM211.433 45.325H188.883V51.175H211.433V45.325ZM185.958 48.25V52.35H191.808V48.25H185.958ZM188.883 55.275H206.233V49.425H188.883V55.275ZM204.203 54.4562L213.853 63.7562L217.913 59.5439L208.263 50.2439L204.203 54.4562ZM212.958 61.65V74.8H218.808V61.65H212.958ZM235.75 74.8V77.725H238.675V74.8H235.75ZM226.4 74.8H223.475V77.725H226.4V74.8ZM226.4 48.25H229.325V45.325H226.4V48.25ZM215.1 48.25H212.175V51.175H215.1V48.25ZM215.1 38.9V35.975H212.175V38.9H215.1ZM247 38.9H249.925V35.975H247V38.9ZM247 48.25V51.175H249.925V48.25H247ZM235.75 48.25V45.325H232.825V48.25H235.75ZM235.75 71.875H226.4V77.725H235.75V71.875ZM229.325 74.8V48.25H223.475V74.8H229.325ZM226.4 45.325H215.1V51.175H226.4V45.325ZM218.025 48.25V38.9H212.175V48.25H218.025ZM215.1 41.825H247V35.975H215.1V41.825ZM244.075 38.9V48.25H249.925V38.9H244.075ZM247 45.325H235.75V51.175H247V45.325ZM232.825 48.25V74.8H238.675V48.25H232.825ZM261.344 74.8V77.725H264.269V74.8H261.344ZM251.994 74.8H249.069V77.725H251.994V74.8ZM251.994 38.9V35.975H249.069V38.9H251.994ZM261.344 38.9H264.269V35.975H261.344V38.9ZM261.344 71.875H251.994V77.725H261.344V71.875ZM254.919 74.8V38.9H249.069V74.8H254.919ZM251.994 41.825H261.344V35.975H251.994V41.825ZM258.419 38.9V74.8H264.269V38.9H258.419ZM275.7 74.8V77.725H278.625V74.8H275.7ZM266.35 74.8H263.425V77.725H266.35V74.8ZM266.35 38.9V35.975H263.425V38.9H266.35ZM302.6 38.9H305.525V35.975H302.6V38.9ZM302.6 56.4V59.325H305.525V56.4H302.6ZM293.3 56.4H290.375V59.325H293.3V56.4ZM293.3 48.25H296.225V45.325H293.3V48.25ZM275.7 48.25V45.325H272.775V48.25H275.7ZM275.7 52.45H272.775V55.375H275.7V52.45ZM289.05 52.45H291.975V49.525H289.05V52.45ZM289.05 61.8V64.725H291.975V61.8H289.05ZM275.7 61.8V58.875H272.775V61.8H275.7ZM275.7 71.875H266.35V77.725H275.7V71.875ZM269.275 74.8V38.9H263.425V74.8H269.275ZM266.35 41.825H302.6V35.975H266.35V41.825ZM299.675 38.9V56.4H305.525V38.9H299.675ZM302.6 53.475H293.3V59.325H302.6V53.475ZM296.225 56.4V48.25H290.375V56.4H296.225ZM293.3 45.325H275.7V51.175H293.3V45.325ZM272.775 48.25V52.45H278.625V48.25H272.775ZM275.7 55.375H289.05V49.525H275.7V55.375ZM286.125 52.45V61.8H291.975V52.45H286.125ZM289.05 58.875H275.7V64.725H289.05V58.875ZM272.775 61.8V74.8H278.625V61.8H272.775ZM343.859 74.8V77.725H346.784V74.8H343.859ZM307.709 74.8H304.784V77.725H307.709V74.8ZM307.709 65.5V62.5751H304.784V65.5H307.709ZM325.209 65.5V68.425H328.134V65.5H325.209ZM325.209 61.15H328.134V59.9385L327.278 59.0818L325.209 61.15ZM312.309 48.25L314.378 46.1818L313.521 45.325H312.309V48.25ZM307.609 48.25H304.684V51.175H307.609V48.25ZM307.609 38.9V35.975H304.684V38.9H307.609ZM316.159 38.9L318.228 36.8318L317.371 35.975H316.159V38.9ZM329.709 52.45L327.641 54.5183L328.498 55.375H329.709V52.45ZM334.559 52.45V55.375H337.484V52.45H334.559ZM334.559 38.9V35.975H331.634V38.9H334.559ZM343.859 38.9H346.784V35.975H343.859V38.9ZM343.859 52.65L345.864 54.7804L346.784 53.9142V52.65H343.859ZM334.559 61.4L332.555 59.2697L331.634 60.1359V61.4H334.559ZM334.559 65.5H331.634V68.425H334.559V65.5ZM343.859 65.5H346.784V62.5751H343.859V65.5ZM343.859 71.875H307.709V77.725H343.859V71.875ZM310.634 74.8V65.5H304.784V74.8H310.634ZM307.709 68.425H325.209V62.5751H307.709V68.425ZM328.134 65.5V61.15H322.284V65.5H328.134ZM327.278 59.0818L314.378 46.1818L310.241 50.3183L323.141 63.2183L327.278 59.0818ZM312.309 45.325H307.609V51.175H312.309V45.325ZM310.534 48.25V38.9H304.684V48.25H310.534ZM307.609 41.825H316.159V35.975H307.609V41.825ZM314.091 40.9683L327.641 54.5183L331.778 50.3818L318.228 36.8318L314.091 40.9683ZM329.709 55.375H334.559V49.525H329.709V55.375ZM337.484 52.45V38.9H331.634V52.45H337.484ZM334.559 41.825H343.859V35.975H334.559V41.825ZM340.934 38.9V52.65H346.784V38.9H340.934ZM341.855 50.5197L332.555 59.2697L336.564 63.5304L345.864 54.7804L341.855 50.5197ZM331.634 61.4V65.5H337.484V61.4H331.634ZM334.559 68.425H343.859V62.5751H334.559V68.425ZM340.934 65.5V74.8H346.784V65.5H340.934Z" fill="#33E9E9" mask="url(#path-8-outside-4_153_1568)"/>
</g>
<g filter="url(#filter5_f_153_1568)">
<mask id="path-10-outside-5_153_1568" maskUnits="userSpaceOnUse" x="54" y="37" width="292" height="45" fill="black">
<rect fill="white" x="54" y="37" width="292" height="45"/>
<path d="M79.2307 79.9H69.9307V75H56.4307V39.1H92.6807V75H79.2307V79.9ZM83.3807 65.7V48.45H65.7807V65.7H69.9307V62.4H79.2307V65.7H83.3807ZM134.04 75H107.34L97.6904 65.7V39.1H107.04V65.7H124.69V39.1H134.04V75ZM174.248 75H139.048V57.5L157.448 39.1H174.248V48.45H161.298L157.098 52.65H171.648V62H148.398V65.7H174.248V75ZM215.583 75H179.233V65.7H206.233V61.85H188.883L179.233 52.55V39.1H211.133V48.45H188.583V52.55H205.933L215.583 61.85V75ZM235.451 75H226.101V48.45H214.801V39.1H246.701V48.45H235.451V75ZM261.044 75H251.694V39.1H261.044V75ZM275.4 75H266.05V39.1H302.3V56.6H293V48.45H275.4V52.65H288.75V62H275.4V75ZM343.56 75H307.41V65.7H324.91V61.35L312.01 48.45H307.31V39.1H315.86L329.41 52.65H334.26V39.1H343.56V52.85L334.26 61.6V65.7H343.56V75Z"/>
</mask>
<path d="M79.2307 79.9V81.3625H80.6932V79.9H79.2307ZM69.9307 79.9H68.4682V81.3625H69.9307V79.9ZM69.9307 75H71.3932V73.5375H69.9307V75ZM56.4307 75H54.9682V76.4625H56.4307V75ZM56.4307 39.1V37.6375H54.9682V39.1H56.4307ZM92.6807 39.1H94.1432V37.6375H92.6807V39.1ZM92.6807 75V76.4625H94.1432V75H92.6807ZM79.2307 75V73.5375H77.7682V75H79.2307ZM83.3807 65.7V67.1625H84.8432V65.7H83.3807ZM83.3807 48.45H84.8432V46.9875H83.3807V48.45ZM65.7807 48.45V46.9875H64.3182V48.45H65.7807ZM65.7807 65.7H64.3182V67.1625H65.7807V65.7ZM69.9307 65.7V67.1625H71.3932V65.7H69.9307ZM69.9307 62.4V60.9375H68.4682V62.4H69.9307ZM79.2307 62.4H80.6932V60.9375H79.2307V62.4ZM79.2307 65.7H77.7682V67.1625H79.2307V65.7ZM79.2307 78.4375H69.9307V81.3625H79.2307V78.4375ZM71.3932 79.9V75H68.4682V79.9H71.3932ZM69.9307 73.5375H56.4307V76.4625H69.9307V73.5375ZM57.8932 75V39.1H54.9682V75H57.8932ZM56.4307 40.5625H92.6807V37.6375H56.4307V40.5625ZM91.2182 39.1V75H94.1432V39.1H91.2182ZM92.6807 73.5375H79.2307V76.4625H92.6807V73.5375ZM77.7682 75V79.9H80.6932V75H77.7682ZM84.8432 65.7V48.45H81.9182V65.7H84.8432ZM83.3807 46.9875H65.7807V49.9125H83.3807V46.9875ZM64.3182 48.45V65.7H67.2432V48.45H64.3182ZM65.7807 67.1625H69.9307V64.2375H65.7807V67.1625ZM71.3932 65.7V62.4H68.4682V65.7H71.3932ZM69.9307 63.8625H79.2307V60.9375H69.9307V63.8625ZM77.7682 62.4V65.7H80.6932V62.4H77.7682ZM79.2307 67.1625H83.3807V64.2375H79.2307V67.1625ZM134.04 75V76.4625H135.503V75H134.04ZM107.34 75L106.326 76.0531L106.75 76.4625H107.34V75ZM97.6904 65.7H96.2279V66.3217L96.6756 66.7531L97.6904 65.7ZM97.6904 39.1V37.6375H96.2279V39.1H97.6904ZM107.04 39.1H108.503V37.6375H107.04V39.1ZM107.04 65.7H105.578V67.1625H107.04V65.7ZM124.69 65.7V67.1625H126.153V65.7H124.69ZM124.69 39.1V37.6375H123.228V39.1H124.69ZM134.04 39.1H135.503V37.6375H134.04V39.1ZM134.04 73.5375H107.34V76.4625H134.04V73.5375ZM108.355 73.9469L98.7053 64.6469L96.6756 66.7531L106.326 76.0531L108.355 73.9469ZM99.1529 65.7V39.1H96.2279V65.7H99.1529ZM97.6904 40.5625H107.04V37.6375H97.6904V40.5625ZM105.578 39.1V65.7H108.503V39.1H105.578ZM107.04 67.1625H124.69V64.2375H107.04V67.1625ZM126.153 65.7V39.1H123.228V65.7H126.153ZM124.69 40.5625H134.04V37.6375H124.69V40.5625ZM132.578 39.1V75H135.503V39.1H132.578ZM174.248 75V76.4625H175.71V75H174.248ZM139.048 75H137.585V76.4625H139.048V75ZM139.048 57.5L138.014 56.4659L137.585 56.8942V57.5H139.048ZM157.448 39.1V37.6375H156.842L156.414 38.0659L157.448 39.1ZM174.248 39.1H175.71V37.6375H174.248V39.1ZM174.248 48.45V49.9125H175.71V48.45H174.248ZM161.298 48.45V46.9875H160.692L160.264 47.4159L161.298 48.45ZM157.098 52.65L156.064 51.6159L153.567 54.1125H157.098V52.65ZM171.648 52.65H173.11V51.1875H171.648V52.65ZM171.648 62V63.4625H173.11V62H171.648ZM148.398 62V60.5375H146.935V62H148.398ZM148.398 65.7H146.935V67.1625H148.398V65.7ZM174.248 65.7H175.71V64.2375H174.248V65.7ZM174.248 73.5375H139.048V76.4625H174.248V73.5375ZM140.51 75V57.5H137.585V75H140.51ZM140.082 58.5341L158.482 40.1341L156.414 38.0659L138.014 56.4659L140.082 58.5341ZM157.448 40.5625H174.248V37.6375H157.448V40.5625ZM172.785 39.1V48.45H175.71V39.1H172.785ZM174.248 46.9875H161.298V49.9125H174.248V46.9875ZM160.264 47.4159L156.064 51.6159L158.132 53.6841L162.332 49.4841L160.264 47.4159ZM157.098 54.1125H171.648V51.1875H157.098V54.1125ZM170.185 52.65V62H173.11V52.65H170.185ZM171.648 60.5375H148.398V63.4625H171.648V60.5375ZM146.935 62V65.7H149.86V62H146.935ZM148.398 67.1625H174.248V64.2375H148.398V67.1625ZM172.785 65.7V75H175.71V65.7H172.785ZM215.583 75V76.4625H217.046V75H215.583ZM179.233 75H177.771V76.4625H179.233V75ZM179.233 65.7V64.2375H177.771V65.7H179.233ZM206.233 65.7V67.1625H207.696V65.7H206.233ZM206.233 61.85H207.696V60.3875H206.233V61.85ZM188.883 61.85L187.869 62.9031L188.293 63.3125H188.883V61.85ZM179.233 52.55H177.771V53.1717L178.219 53.6031L179.233 52.55ZM179.233 39.1V37.6375H177.771V39.1H179.233ZM211.133 39.1H212.596V37.6375H211.133V39.1ZM211.133 48.45V49.9125H212.596V48.45H211.133ZM188.583 48.45V46.9875H187.121V48.45H188.583ZM188.583 52.55H187.121V54.0125H188.583V52.55ZM205.933 52.55L206.948 51.4969L206.523 51.0875H205.933V52.55ZM215.583 61.85H217.046V61.2283L216.598 60.7969L215.583 61.85ZM215.583 73.5375H179.233V76.4625H215.583V73.5375ZM180.696 75V65.7H177.771V75H180.696ZM179.233 67.1625H206.233V64.2375H179.233V67.1625ZM207.696 65.7V61.85H204.771V65.7H207.696ZM206.233 60.3875H188.883V63.3125H206.233V60.3875ZM189.898 60.7969L180.248 51.4969L178.219 53.6031L187.869 62.9031L189.898 60.7969ZM180.696 52.55V39.1H177.771V52.55H180.696ZM179.233 40.5625H211.133V37.6375H179.233V40.5625ZM209.671 39.1V48.45H212.596V39.1H209.671ZM211.133 46.9875H188.583V49.9125H211.133V46.9875ZM187.121 48.45V52.55H190.046V48.45H187.121ZM188.583 54.0125H205.933V51.0875H188.583V54.0125ZM204.919 53.6031L214.569 62.9031L216.598 60.7969L206.948 51.4969L204.919 53.6031ZM214.121 61.85V75H217.046V61.85H214.121ZM235.451 75V76.4625H236.913V75H235.451ZM226.101 75H224.638V76.4625H226.101V75ZM226.101 48.45H227.563V46.9875H226.101V48.45ZM214.801 48.45H213.338V49.9125H214.801V48.45ZM214.801 39.1V37.6375H213.338V39.1H214.801ZM246.701 39.1H248.163V37.6375H246.701V39.1ZM246.701 48.45V49.9125H248.163V48.45H246.701ZM235.451 48.45V46.9875H233.988V48.45H235.451ZM235.451 73.5375H226.101V76.4625H235.451V73.5375ZM227.563 75V48.45H224.638V75H227.563ZM226.101 46.9875H214.801V49.9125H226.101V46.9875ZM216.263 48.45V39.1H213.338V48.45H216.263ZM214.801 40.5625H246.701V37.6375H214.801V40.5625ZM245.238 39.1V48.45H248.163V39.1H245.238ZM246.701 46.9875H235.451V49.9125H246.701V46.9875ZM233.988 48.45V75H236.913V48.45H233.988ZM261.044 75V76.4625H262.507V75H261.044ZM251.694 75H250.232V76.4625H251.694V75ZM251.694 39.1V37.6375H250.232V39.1H251.694ZM261.044 39.1H262.507V37.6375H261.044V39.1ZM261.044 73.5375H251.694V76.4625H261.044V73.5375ZM253.157 75V39.1H250.232V75H253.157ZM251.694 40.5625H261.044V37.6375H251.694V40.5625ZM259.582 39.1V75H262.507V39.1H259.582ZM275.4 75V76.4625H276.862V75H275.4ZM266.05 75H264.587V76.4625H266.05V75ZM266.05 39.1V37.6375H264.587V39.1H266.05ZM302.3 39.1H303.762V37.6375H302.3V39.1ZM302.3 56.6V58.0625H303.762V56.6H302.3ZM293 56.6H291.537V58.0625H293V56.6ZM293 48.45H294.462V46.9875H293V48.45ZM275.4 48.45V46.9875H273.937V48.45H275.4ZM275.4 52.65H273.937V54.1125H275.4V52.65ZM288.75 52.65H290.212V51.1875H288.75V52.65ZM288.75 62V63.4625H290.212V62H288.75ZM275.4 62V60.5375H273.937V62H275.4ZM275.4 73.5375H266.05V76.4625H275.4V73.5375ZM267.512 75V39.1H264.587V75H267.512ZM266.05 40.5625H302.3V37.6375H266.05V40.5625ZM300.837 39.1V56.6H303.762V39.1H300.837ZM302.3 55.1375H293V58.0625H302.3V55.1375ZM294.462 56.6V48.45H291.537V56.6H294.462ZM293 46.9875H275.4V49.9125H293V46.9875ZM273.937 48.45V52.65H276.862V48.45H273.937ZM275.4 54.1125H288.75V51.1875H275.4V54.1125ZM287.287 52.65V62H290.212V52.65H287.287ZM288.75 60.5375H275.4V63.4625H288.75V60.5375ZM273.937 62V75H276.862V62H273.937ZM343.56 75V76.4625H345.022V75H343.56ZM307.41 75H305.947V76.4625H307.41V75ZM307.41 65.7V64.2375H305.947V65.7H307.41ZM324.91 65.7V67.1625H326.372V65.7H324.91ZM324.91 61.35H326.372V60.7442L325.944 60.3159L324.91 61.35ZM312.01 48.45L313.044 47.4159L312.615 46.9875H312.01V48.45ZM307.31 48.45H305.847V49.9125H307.31V48.45ZM307.31 39.1V37.6375H305.847V39.1H307.31ZM315.86 39.1L316.894 38.0659L316.465 37.6375H315.86V39.1ZM329.41 52.65L328.375 53.6841L328.804 54.1125H329.41V52.65ZM334.26 52.65V54.1125H335.722V52.65H334.26ZM334.26 39.1V37.6375H332.797V39.1H334.26ZM343.56 39.1H345.022V37.6375H343.56V39.1ZM343.56 52.85L344.562 53.9152L345.022 53.482V52.85H343.56ZM334.26 61.6L333.257 60.5348L332.797 60.9679V61.6H334.26ZM334.26 65.7H332.797V67.1625H334.26V65.7ZM343.56 65.7H345.022V64.2375H343.56V65.7ZM343.56 73.5375H307.41V76.4625H343.56V73.5375ZM308.872 75V65.7H305.947V75H308.872ZM307.41 67.1625H324.91V64.2375H307.41V67.1625ZM326.372 65.7V61.35H323.447V65.7H326.372ZM325.944 60.3159L313.044 47.4159L310.975 49.4841L323.875 62.3841L325.944 60.3159ZM312.01 46.9875H307.31V49.9125H312.01V46.9875ZM308.772 48.45V39.1H305.847V48.45H308.772ZM307.31 40.5625H315.86V37.6375H307.31V40.5625ZM314.825 40.1341L328.375 53.6841L330.444 51.6159L316.894 38.0659L314.825 40.1341ZM329.41 54.1125H334.26V51.1875H329.41V54.1125ZM335.722 52.65V39.1H332.797V52.65H335.722ZM334.26 40.5625H343.56V37.6375H334.26V40.5625ZM342.097 39.1V52.85H345.022V39.1H342.097ZM342.557 51.7848L333.257 60.5348L335.262 62.6652L344.562 53.9152L342.557 51.7848ZM332.797 61.6V65.7H335.722V61.6H332.797ZM334.26 67.1625H343.56V64.2375H334.26V67.1625ZM342.097 65.7V75H345.022V65.7H342.097Z" fill="white" mask="url(#path-10-outside-5_153_1568)"/>
</g>
<defs>
<filter id="filter0_f_153_1568" x="0.0625" y="0.0625" width="395.475" height="113.475" filterUnits="userSpaceOnUse" color-interpolation-filters="sRGB">
<feFlood flood-opacity="0" result="BackgroundImageFix"/>
<feBlend mode="normal" in="SourceGraphic" in2="BackgroundImageFix" result="shape"/>
<feGaussianBlur stdDeviation="10.9688" result="effect1_foregroundBlur_153_1568"/>
</filter>
<filter id="filter1_f_153_1568" x="34.793" y="16.9625" width="331.004" height="84.675" filterUnits="userSpaceOnUse" color-interpolation-filters="sRGB">
<feFlood flood-opacity="0" result="BackgroundImageFix"/>
<feBlend mode="normal" in="SourceGraphic" in2="BackgroundImageFix" result="shape"/>
<feGaussianBlur stdDeviation="10.9688" result="effect1_foregroundBlur_153_1568"/>
</filter>
<filter id="filter2_f_153_1568" x="49.418" y="31.5875" width="301.754" height="55.425" filterUnits="userSpaceOnUse" color-interpolation-filters="sRGB">
<feFlood flood-opacity="0" result="BackgroundImageFix"/>
<feBlend mode="normal" in="SourceGraphic" in2="BackgroundImageFix" result="shape"/>
<feGaussianBlur stdDeviation="3.65625" result="effect1_foregroundBlur_153_1568"/>
</filter>
<filter id="filter3_ddi_153_1568" x="47.2242" y="36.7063" width="306.141" height="59.8125" filterUnits="userSpaceOnUse" color-interpolation-filters="sRGB">
<feFlood flood-opacity="0" result="BackgroundImageFix"/>
<feColorMatrix in="SourceAlpha" type="matrix" values="0 0 0 0 0 0 0 0 0 0 0 0 0 0 0 0 0 0 127 0" result="hardAlpha"/>
<feOffset dy="4.75313"/>
<feGaussianBlur stdDeviation="1.82812"/>
<feColorMatrix type="matrix" values="0 0 0 0 0 0 0 0 0 0.3 0 0 0 0 0.275 0 0 0 0.7 0"/>
<feBlend mode="multiply" in2="BackgroundImageFix" result="effect1_dropShadow_153_1568"/>
<feColorMatrix in="SourceAlpha" type="matrix" values="0 0 0 0 0 0 0 0 0 0 0 0 0 0 0 0 0 0 127 0" result="hardAlpha"/>
<feOffset dy="7.3125"/>
<feGaussianBlur stdDeviation="4.75313"/>
<feColorMatrix type="matrix" values="0 0 0 0 0 0 0 0 0 0.6 0 0 0 0 0.6 0 0 0 1 0"/>
<feBlend mode="color-dodge" in2="effect1_dropShadow_153_1568" result="effect2_dropShadow_153_1568"/>
<feBlend mode="normal" in="SourceGraphic" in2="effect2_dropShadow_153_1568" result="shape"/>
<feColorMatrix in="SourceAlpha" type="matrix" values="0 0 0 0 0 0 0 0 0 0 0 0 0 0 0 0 0 0 127 0" result="hardAlpha"/>
<feOffset dx="-0.475313" dy="0.950625"/>
<feGaussianBlur stdDeviation="0.237656"/>
<feComposite in2="hardAlpha" operator="arithmetic" k2="-1" k3="1"/>
<feColorMatrix type="matrix" values="0 0 0 0 1 0 0 0 0 1 0 0 0 0 1 0 0 0 0.5 0"/>
<feBlend mode="normal" in2="shape" result="effect3_innerShadow_153_1568"/>
</filter>
<filter id="filter4_f_153_1568" x="55.9992" y="38.1688" width="288.591" height="42.2625" filterUnits="userSpaceOnUse" color-interpolation-filters="sRGB">
<feFlood flood-opacity="0" result="BackgroundImageFix"/>
<feBlend mode="normal" in="SourceGraphic" in2="BackgroundImageFix" result="shape"/>
<feGaussianBlur stdDeviation="0.365625" result="effect1_foregroundBlur_153_1568"/>
</filter>
<filter id="filter5_f_153_1568" x="55.9432" y="38.6125" width="288.104" height="41.775" filterUnits="userSpaceOnUse" color-interpolation-filters="sRGB">
<feFlood flood-opacity="0" result="BackgroundImageFix"/>
<feBlend mode="normal" in="SourceGraphic" in2="BackgroundImageFix" result="shape"/>
<feGaussianBlur stdDeviation="0.24375" result="effect1_foregroundBlur_153_1568"/>
</filter>
</defs>
</svg>
